<?xml version="1.0" encoding="UTF-8"?>
<svg id="Layer_1" data-name="Layer 1" xmlns="http://www.w3.org/2000/svg" xmlns:xlink="http://www.w3.org/1999/xlink" viewBox="0 0 991.55 734.48">
  <defs>
    <style>
      .cls-1 {
        fill: #f6d84c;
      }

      .cls-1, .cls-2, .cls-3 {
        stroke: #3a3a3a;
        stroke-miterlimit: 10;
        stroke-width: 4px;
      }

      .cls-4 {
        clip-path: url(#clippath);
      }

      .cls-5 {
        fill: none;
      }

      .cls-5, .cls-6 {
        stroke-width: 0px;
      }

      .cls-6 {
        fill: #f2f2f2;
      }

      .cls-2 {
        fill: #3a3a3a;
      }

      .cls-3 {
        fill: #fff;
      }
    </style>
    <clipPath id="clippath">
      <rect class="cls-5" x="0" width="991.55" height="734.48"/>
    </clipPath>
  </defs>
  <rect class="cls-6" x="0" width="991.55" height="734.48"/>
  <g class="cls-4">
    <g>
      <path class="cls-1" d="M799.55,649.88v187.17H192v-187.17c0-69.64,44.26-129.75,107.25-152.19,12.19-4.37,25.1-7.31,38.56-8.64l32.21-3.18c-.14.1-.27.2-.41.27,0,0,55.06,25.04,126.17,26.78.31,0,.62.03.92.03,39.14.82,83.06-5.43,125.28-26.81-.14-.07-.24-.17-.38-.27l32.14,3.18c13.76,1.37,27.02,4.41,39.48,8.95,62.5,22.71,106.32,82.59,106.32,151.89Z"/>
      <path class="cls-2" d="M640.01,292.15v.03c-6.73,11.72-17.38,17.08-32.86,6.73-9.19,36.89-26.57,67.97-48.91,88.39,7,32.55,23.74,73.16,63.32,98.57h.03c.14.1.24.2.38.27-42.22,21.38-86.14,27.63-125.28,26.81-.31,0-.61-.03-.92-.03-71.11-1.74-126.17-26.78-126.17-26.78.14-.07.27-.17.41-.27,39.58-25.41,56.32-65.99,63.32-98.54-22.34-20.42-39.76-51.51-48.94-88.39-14.93,9.94-25.38,5.29-32.14-5.6-12.12-19.47-12.57-58.81-6.18-70.12,2.56-4.51,6.59-5.23,11.24-3.69,6.18,2.02,13.49,8.06,19.88,14.38,8.27-2.25,15.75-5.36,22.54-9.12,31.56-17.28,48.09-48.02,56.36-70.46.07-.17.1-.31.17-.48,2.63-7.14,12.53-7.48,15.57-.51.14.34.31.65.44.99,4.82,10.79,12.23,23.46,23.5,35.49.31.31.62.61.92.96,17.62,18.34,44.4,35.01,84.94,40.88,10.04,1.5,20.94,2.29,32.72,2.29,6.66-6.63,14.38-12.94,20.77-14.65v-.03c4.27-1.16,7.96-.27,10.35,3.96,6.28,11.1,5.98,49.08-5.47,68.92Z"/>
      <g>
        <path class="cls-3" d="M640.01,292.18c3.45,27.53,11.92,54.17,25.07,78.66,7.55,14.04,13.53,28.86,17.9,44.09,4.34,15.27,7.04,31.01,8.03,46.93l2.22,36.14"/>
        <path class="cls-3" d="M635.13,219.26v.03c-6.39,1.71-14.11,8.03-20.77,14.65-11.78,0-22.68-.79-32.72-2.29-40.54-5.87-67.32-22.54-84.94-40.88-.31-.34-.61-.65-.92-.96-11.27-12.02-18.68-24.69-23.5-35.49-.14-.34-.31-.65-.44-.99-3.04-6.97-12.94-6.63-15.57.51-.07.17-.1.31-.17.48-8.27,22.44-24.8,53.18-56.36,70.46-6.8,3.76-14.28,6.87-22.54,9.12-6.39-6.32-13.7-12.36-19.88-14.38l3.48-57.21v-.03c-.31-2.63-.44-5.29-.44-7.96,0-55.19,60.62-99.94,135.42-99.94s135.42,44.74,135.42,99.94l3.93,64.93Z"/>
        <path class="cls-3" d="M299.25,497.69l2.22-35.83c.99-15.92,3.69-31.66,8.03-46.93,4.34-15.23,10.35-30.06,17.9-44.09,12.94-24.15,21.38-50.38,24.86-77.5"/>
      </g>
    </g>
  </g>
</svg>