<?xml version="1.0" encoding="UTF-8"?><svg id="Layer_1" xmlns="http://www.w3.org/2000/svg" width="991.5498" height="734.4813" xmlns:xlink="http://www.w3.org/1999/xlink" viewBox="0 0 991.5498 734.4813"><defs><style>.cls-1,.cls-2{fill:none;}.cls-3{clip-path:url(#clippath);}.cls-4{fill:#f2f2f2;}.cls-5,.cls-6{fill:#fff;}.cls-7,.cls-8{fill:#3a3a3a;}.cls-6,.cls-8{stroke:#3a3a3a;stroke-width:4px;}.cls-6,.cls-8,.cls-2{stroke-miterlimit:10;}.cls-2{stroke:red;stroke-width:3.313px;}</style><clipPath id="clippath"><rect class="cls-1" x="0" width="991.5498" height="734.4813"/></clipPath></defs><rect class="cls-5" x="0" width="991.5498" height="734.4813"/><rect class="cls-5" x="0" width="991.5498" height="734.4813"/><rect class="cls-4" x="0" width="991.5498" height="734.4813"/><g class="cls-3"><path class="cls-7" d="m799.1399,649.617v186.91H192.4099v-186.91c0-83.02,62.98-152.51,145.61-160.64l32.22-3.17c-.15.1-.31.2-.47.3,1.37.62,133.41,60.02,252.02,0-.16-.1-.3199-.2-.47-.3l32.22,3.17c82.6201,8.13,145.6001,77.62,145.6001,160.64Z"/><path class="cls-6" d="m606.9998,299.137c-9.17,36.84-26.53,67.85-48.83,88.25,6.96,32.51,23.66,73.01,63.15,98.42.15.1.31.2.47.3-118.61,60.02-250.65.62-252.02,0,.16-.1.32-.2.47-.3,39.49-25.41,56.19-65.91,63.15-98.42-22.3-20.4-39.66-51.41-48.83-88.25-41.61,27.72-48.23-57.98-38.28-75.63,3.09-5.48,8.35-5.34,14.25-2.4,5.46,2.71,11.48,7.84,16.83,13.14.4.4.8.79,1.19,1.19.03.03.07.07.1.1,3.62,3.56,9.37,3.7,13.2.3701.03-.02.06-.04.09-.07,1.02-.91,2.06-1.86,3.1-2.86.34-.3199.6801-.64,1.02-.98,1.82-1.77,3.67-3.65,5.52-5.63,23.07-24.58,47.45-62.74,47.45-62.74,11.32,21.58,70.92,53.02,118.87,75.57,5.55,2.61,10.94,4.78,16.08,6.8.91.36,1.82.71,2.72,1.06,6.97,2.74,14.91.85,19.89-4.75,2.25-2.53,4.84-5.32,7.61-8.06,5.35-5.3,11.36-10.42,16.8199-13.14,5.9-2.94,11.17-3.08,14.26,2.4,9.95,17.65,3.3201,103.35-38.28,75.63Z"/><path class="cls-2" d="m621.8098,486.097c-.01,0-.01.01-.02.01"/><path class="cls-2" d="m369.7698,486.107l-.01-.01"/><path class="cls-8" d="m631.0198,154.747v66.36c-5.46,2.72-11.47,7.84-16.8199,13.14-2.77,2.74-5.36,5.53-7.61,8.06-4.98,5.6-12.92,7.49-19.89,4.75-.9-.35-1.81-.7-2.72-1.06-5.14-2.02-10.53-4.19-16.08-6.8-47.95-22.55-107.55-53.99-118.87-75.57,0,0-24.38,38.16-47.45,62.74-1.85,1.98-3.7,3.86-5.52,5.63-.34.33-.68.66-1.02.98-1.04,1-2.08,1.95-3.1,2.86-.03.03-.06.05-.09.07-3.83,3.33-9.58,3.1899-13.2-.3701-.03-.03-.07-.0699-.1-.1-.39-.4-.79-.79-1.19-1.19-5.35-5.3-11.37-10.43-16.83-13.14v-66.36c0-55.14,60.55-99.83,135.25-99.83s135.2399,44.69,135.2399,99.83Z"/></g></svg>