<?xml version="1.0" encoding="UTF-8"?><svg xmlns="http://www.w3.org/2000/svg" width="600" height="450" xmlns:xlink="http://www.w3.org/1999/xlink" viewBox="0 0 600 450"><defs><style>.cls-1{fill:none;}.cls-2{fill:url(#_Безымянный_градиент_22);}.cls-2,.cls-3{mix-blend-mode:multiply;}.cls-4{fill:url(#_Безымянный_градиент_112-2);}.cls-5{fill:url(#_Безымянный_градиент_112-3);}.cls-6{fill:url(#linear-gradient);}.cls-7{clip-path:url(#clippath);}.cls-8{fill:#003f7f;}.cls-9,.cls-10,.cls-11{fill:#ffd936;}.cls-12{fill:#d8fcff;}.cls-13{fill:#373737;}.cls-14,.cls-15{fill:#95999f;}.cls-16{fill:#fff;}.cls-16,.cls-10,.cls-15{stroke:#373737;stroke-miterlimit:10;stroke-width:2px;}.cls-17{fill:url(#_Безымянный_градиент_58);}.cls-18{clip-path:url(#clippath-1);}.cls-19{clip-path:url(#clippath-2);}.cls-11{opacity:.2;}.cls-20{fill:url(#_Безымянный_градиент_112);}.cls-3{fill:url(#_Безымянный_градиент_22-2);}.cls-21{isolation:isolate;}.cls-22{fill:#6e737b;opacity:.38;}</style><linearGradient id="linear-gradient" x1="391.9578" y1="535.4813" x2="214.2852" y2="-64.4026" gradientUnits="userSpaceOnUse"><stop offset="0" stop-color="#3ddceb"/><stop offset="1" stop-color="#fff"/></linearGradient><clipPath id="clippath"><rect class="cls-1" x="0" width="600" height="450"/></clipPath><linearGradient id="_Безымянный_градиент_22" x1="281.1957" y1="349.6126" x2="369.3049" y2="197.0029" gradientUnits="userSpaceOnUse"><stop offset="0" stop-color="#cacdd1"/><stop offset="1" stop-color="#b0b0b6" stop-opacity="0"/></linearGradient><linearGradient id="_Безымянный_градиент_22-2" x1="325.1104" y1="330.1236" x2="413.7891" y2="176.5275" xlink:href="#_Безымянный_градиент_22"/><linearGradient id="_Безымянный_градиент_112" x1="3738.0847" y1="98.0078" x2="3738.093" y2="97.9935" gradientTransform="translate(3946.6395) rotate(-180) scale(1 -1)" gradientUnits="userSpaceOnUse"><stop offset="0" stop-color="#2165aa"/><stop offset="1" stop-color="#0f3e77"/></linearGradient><linearGradient id="_Безымянный_градиент_112-2" x1="3557.0383" y1="155.0183" x2="3559.7597" y2="150.3048" xlink:href="#_Безымянный_градиент_112"/><linearGradient id="_Безымянный_градиент_112-3" x1="-2970.2255" y1="133.1761" x2="-2971.8412" y2="134.3369" gradientTransform="translate(3117.2661)" xlink:href="#_Безымянный_градиент_112"/><clipPath id="clippath-1"><path class="cls-1" d="m415.5079,363.9588c-60.5608-34.96-210.6587-121.629-211.4068-122.1071-15.5212-9.7505-30.0863-25.5401-41.3299-44.8905-11.8131-20.4538-18.3615-42.1681-18.3615-61.1567,0-.2095.0295-.3896.0295-.568-1.696,1.7599-3.1563,3.888-4.3596,6.3437,8.4146-17.8066,30.2534-16.438,55.2892,3.315,1.6142-79.641,78.4739-40.1938,106.1373,21.1741,39.0577-9.153,79.6395,53.0546,67.3776,92.109,28.8602,7.4486,73.8702,77.8762,46.6242,105.7804Z"/></clipPath><linearGradient id="_Безымянный_градиент_58" x1="-2906.3021" y1="119.456" x2="-2857.2813" y2="288.6264" gradientTransform="translate(3117.2661)" gradientUnits="userSpaceOnUse"><stop offset="0" stop-color="#00b8e3"/><stop offset="1" stop-color="#1572b1"/></linearGradient><clipPath id="clippath-2"><rect class="cls-1" x="0" y="-489.5069" width="600" height="450"/></clipPath></defs><g class="cls-21"><g id="Layer_1"><rect class="cls-6" width="600" height="450"/><path class="cls-1" d="m299.9998,75.1682h.0004c99.3446,0,179.9998,80.6552,179.9998,179.9998v95.0002H120v-95.0002c0-99.3446,80.6552-179.9998,179.9998-179.9998Z"/><g class="cls-7"><path class="cls-11" d="m362.059,128.4855C157.771,105.7343-26.3593,172.4552-49.1888,277.5266c-22.7906,105.0714,124.3249,208.7283,328.613,231.4792,204.288,22.7512,388.4189-43.9697,411.2483-149.0411,22.8294-105.0714-124.2861-208.6889-328.6135-231.4792Zm224.8779,213.1291c-15.6782,64.7953-147.9798,104.5999-295.528,89.0001-147.5481-15.5995-254.4662-80.7879-238.7881-145.5439,15.6782-64.756,147.9803-104.5999,295.528-89.0001,147.5481,15.6388,254.4662,80.7879,238.7881,145.5439Z"/><polygon class="cls-2" points="153.9653 297.4029 296.1938 375.9569 489.545 261.3199 344.9348 179.1545 153.9653 297.4029"/><path class="cls-3" d="m147.6903,216.4785l264.7269,153.9484c1.4291.8317,3.1972.8317,4.628-.0034l204.955-124.4136L351.8104,89.3227l-204.0645,119.1832c-3.0924,1.7436-3.1234,6.185-.0557,7.9727Z"/><path class="cls-15" d="m147.3597,125.0309c2.2525-1.0952,4.6836-1.863,7.2604-2.2985,8.6439-1.4848,18.9591.7007,30.0356,7.1033,1.7158.9921,3.3905,2.0643,5.062,3.1906,1.3275-15.3787,7.1147-26.6991,15.9256-33.1363-1.4259-.1784-2.8322-.257-4.2042-.257-4.6067,0-8.832.9381-12.5809,2.734l-41.4985,22.6638Z"/><path class="cls-15" d="m457.4664,350.0713c8.665-5.1503,14.0184-15.9682,14.0184-31.3176,0-31.1161-21.9926-69.0458-49.1158-84.7045-1.4293-.8266-2.8584-1.5617-4.2613-2.2297l-41.4789,22.6623c1.408.6581,2.8223,1.3931,4.2613,2.2182,27.1233,15.6719,49.1192,53.5901,49.1192,84.7177,0,15.7831-7.1309,25.9632-16.243,30.9251l43.2763-22.0145.424-.257Z"/><path class="cls-15" d="m249.8101,75.4648l-40.3509,22.0402c.2555-.1343.5125-.2686.7809-.4028,7.1132-3.536,15.7145-4.394,25.2489-2.2755,6.1456,1.3507,12.6808,3.9487,19.4616,7.8515,20.3556,11.7576,38.5453,32.9136,50.5664,56.5678l41.4789-22.6507c-12.0211-23.6559-30.2108-44.8136-50.5664-56.5678-17.9327-10.3595-34.184-11.4662-46.007-4.8949l-.0099-.0116-.144.0885c-.1572.0883-.3029.1784-.4585.2553Z"/><path class="cls-20" d="m208.2757,98.1498l.0131.0116c.1784-.1113.3552-.2129.5353-.3128l-.5483.3012Z"/><path class="cls-15" d="m305.5169,159.2459c7.5633-2.1396,16.9668-.568,27.1462,5.3076,2.0544,1.1835,4.0828,2.5226,6.0703,3.9616,22.1481,16.1811,39.2359,47.8243,39.2359,74.1651,0,4.3398-.4682,8.2655-1.3408,11.8017l41.4789-22.6623c.8692-3.5246,1.3374-7.4634,1.3374-11.7903,0-28.7063-20.2736-63.6941-45.2915-78.1381-10.1942-5.8772-19.596-7.4503-27.1576-5.296l-41.4789,22.6507Z"/><path class="cls-4" d="m386.1892,150.7036c1.3916,1.2492,2.7652,2.554,4.1026,3.916-1.326-1.3621-2.6995-2.6668-4.1026-3.916Z"/><path class="cls-8" d="m129.6317,161.2072c0,34.878,24.6315,77.3686,55.024,94.9149,1.0952.6286,201.8233,116.2463,204.5131,117.2728,23.1762,8.8697,40.837-4.0927,40.837-31.9772,0-31.1243-21.9974-69.0458-49.111-84.7144-1.447-.8268-2.8567-1.5619-4.2679-2.2264.8742-3.5313,1.3409-7.4602,1.3409-11.7968,0-26.3458-17.0913-57.984-39.2378-74.1651-1.9842-1.4439-4.0092-2.7732-6.0604-3.9616-10.1925-5.8755-19.5861-7.4505-27.1528-5.3042-12.0178-23.6543-30.2157-44.8119-50.5696-56.5744-6.7727-3.9044-13.3111-6.4928-19.4552-7.8449-9.5361-2.1218-18.1389-1.259-25.2504,2.2722-11.3891,5.6087-18.9771,18.0113-20.5274,35.9293-1.6682-1.1314-3.3462-2.2036-5.0586-3.194-11.0765-6.4011-21.3934-8.5914-30.0306-7.1001-15.0498,2.5654-24.9934,16.3103-24.9934,38.47Z"/><path class="cls-9" d="m415.5079,363.9588c-60.5608-34.96-210.6587-121.629-211.4068-122.1071-15.5212-9.7505-30.0863-25.5401-41.3299-44.8905-11.8131-20.4538-18.3615-42.1681-18.3615-61.1567,0-.2095.0295-.3896.0295-.568-1.696,1.7599-3.1563,3.888-4.3596,6.3437,8.4146-17.8066,30.2534-16.438,55.2892,3.315,1.6142-79.641,78.4739-40.1938,106.1373,21.1741,39.0577-9.153,79.6395,53.0546,67.3776,92.109,28.8602,7.4486,73.8702,77.8762,46.6242,105.7804Z"/><path class="cls-13" d="m415.6044,364.6578l-.3748-.2163c-61.9098-35.7392-210.6751-121.6387-211.4281-122.12-15.5556-9.7718-30.2992-25.7825-41.5116-45.0804-11.7003-20.2573-18.2272-41.7081-18.4336-60.5231-1.2392,1.4831-2.3394,3.1955-3.2758,5.1076l-1.0052-.4845c3.0974-6.555,7.9449-10.6477,14.408-12.1653,10.9032-2.5521,25.3864,2.6178,40.8551,14.5981.9349-31.9397,13.8351-41.2841,24.5613-43.4762,25.7776-5.2714,64.2245,25.1244,82.4273,65.1266,14.7716-3.2414,31.2324,3.4952,45.2278,18.5629,19.6238,21.1332,29.0353,52.0577,22.5313,73.8032,19.0475,5.4041,44.3192,37.0276,52.3065,65.6243,3.4476,12.3453,5.2092,29.4692-5.9852,40.9338l-.3029.3095ZM144.9925,135.3788c-.0034.0541-.0065.1081-.0116.1621-.0065.0835-.0131.1703-.0131.2635,0,18.8396,6.4943,40.4607,18.2863,60.8785,11.1224,19.1424,25.7351,35.0173,41.1433,44.6974,1.1542.7104,149.055,86.1108,211.0106,121.8778,10.4904-11.0847,8.7487-27.5932,5.4107-39.5439-7.9775-28.5589-33.2853-60.1465-52.0741-64.9956l-.5681-.1474.1752-.5597c6.7236-21.4132-2.5784-52.2263-22.1154-73.2645-13.8546-14.9221-30.1174-21.5327-44.6023-18.134l-.4469.1048-.1883-.4191c-17.615-39.0757-56.3943-70.0395-81.3763-64.9073-14.9875,3.0631-23.1811,18.1096-23.6951,43.5154l-.023,1.1215-.8808-.6959c-15.5246-12.2503-30.0061-17.6003-40.7864-15.071-3.6245.8513-6.7152,2.5654-9.2445,5.1175Z"/><path class="cls-12" d="m145.0726,126.2783l2.2871-1.2474c-.7924.3666-1.5503.7891-2.2871,1.2474Z"/><path class="cls-5" d="m146.6819,133.231c-.7941.6074-1.5372,1.2868-2.2428,2.0168v-.0114c.6875-.7498,1.4341-1.4063,2.2428-2.0054Z"/><path class="cls-14" d="m416.0153,364.2567c.4486-.4503.8694-.9265,1.2885-1.4373-3.4411,4.3676-8.3163,6.7317-14.3557,6.7317-3.5589,0-7.3865-.8382-11.4269-2.364-1.4325-.5369-2.901-1.1671-4.3644-1.9121-.9577-.4796-200.7003-115.7977-201.4483-116.2462-12.8593-8.1053-24.9411-21.1741-34.243-37.1733-9.8078-16.9571-15.22-34.9307-15.22-50.663,0-11.5807,2.8928-20.4751,8.1936-25.9446-.0017.1752-.0295.3504-.0295.5566,0,18.9887,6.5484,40.7029,18.3615,61.1567,11.2436,19.3504,25.8087,35.14,41.3299,44.8905.7482.4781,151.6827,87.625,211.9143,122.405Z"/><path class="cls-13" d="m402.9481,370.1092c-3.4968,0-7.4062-.8087-11.6233-2.3999-1.5486-.5812-3.0368-1.2328-4.4201-1.9367-.8643-.4338-198.5836-114.5274-201.4827-116.2659-12.9413-8.1559-25.1686-21.4261-34.4378-37.3713-9.8651-17.057-15.2986-35.1483-15.2986-50.9429,0-11.589,2.8894-20.6944,8.3524-26.3325l.9725-1.002-.0131,1.3947c-.0017.0951-.0082.1884-.0164.2865-.0065.0837-.0131.1703-.0131.2652,0,18.8396,6.4943,40.4607,18.2863,60.8785,11.1224,19.1424,25.7351,35.0173,41.1433,44.6974,1.0248.6318,118.0962,68.2304,188.0423,108.619l23.4773,13.5567c.3095-.3274.6238-.6875.9529-1.0903l.8709.699c-3.5802,4.543-8.6945,6.9446-14.7927,6.9446ZM143.8579,136.7229c-4.6231,5.4843-7.0559,13.9005-7.0559,24.4696,0,15.6014,5.3778,33.4947,15.1464,50.383,9.1807,15.7913,21.2756,28.9257,34.0579,36.9817,2.6881,1.5994,200.3401,115.6569,201.4058,116.2217,1.3458.6843,2.7945,1.3195,4.3056,1.8859,10.0484,3.7965,18.0096,2.8829,23.4103-2.2755l-23.245-13.4241c-70.0935-40.4738-187.4087-108.2131-188.0816-108.6436-15.5556-9.7718-30.2992-25.7825-41.5116-45.0804-11.7003-20.2557-18.2256-41.7032-18.4319-60.5182Z"/><path class="cls-12" d="m380.8949,264.0866c-1.447-.8268-2.8567-1.5619-4.2679-2.2264.5255-2.1283.8858-4.4169,1.1034-6.8349,1.0446.519,2.0955,1.0658,3.1645,1.6781,27.1135,15.6686,49.111,53.5901,49.111,84.7144,0,1.2425-.0474,2.4425-.1162,3.6262-1.6568-30.3615-22.9618-65.9158-48.9948-80.9573Z"/><path class="cls-12" d="m338.7302,175.8983c-1.9842-1.4455-4.0092-2.7732-6.0604-3.9616-10.1925-5.8755-19.5861-7.4488-27.1528-5.3059-12.0178-23.6527-30.2157-44.8102-50.5696-56.5727-6.7727-3.9061-13.3111-6.4928-19.4552-7.8449-9.5361-2.1218-18.1389-1.259-25.2504,2.2738-11.3891,5.607-18.9771,18.0096-20.5274,35.9274-1.6682-1.1312-3.3462-2.2034-5.0586-3.1938-11.0765-6.4011-21.3934-8.5931-30.0306-7.1018-14.2117,2.423-23.8605,14.8272-24.892,34.8651-.0622-1.2672-.1014-2.5276-.1014-3.7767,0-22.1597,9.9436-35.9046,24.9934-38.47,8.6372-1.4913,18.9541.699,30.0306,7.1001,1.7124.9904,3.3905,2.0626,5.0586,3.194,1.5503-17.918,9.1383-30.3206,20.5274-35.9293,7.1115-3.5311,15.7144-4.394,25.2504-2.2722,6.1441,1.3522,12.6825,3.9405,19.4552,7.8449,20.3539,11.7625,38.5518,32.92,50.5696,56.5744,7.5667-2.1463,16.9602-.5713,27.1528,5.3042,2.0512,1.1884,4.0763,2.5178,6.0604,3.9616,22.1464,16.1811,39.2378,47.8193,39.2378,74.1651,0,1.2457-.0491,2.4473-.1261,3.626-1.5079-25.5369-18.008-54.9897-39.1117-70.4078Z"/><path class="cls-13" d="m193.6287,261.297c35.8865,20.6748,167.6033,96.485,191.7714,110.04,2.7652,1.002,3.248,3.7474,17.314,4.8311,49.5431-2.1676,25.7201-95.8482-24.6774-120.9972-3.3905-1.8221.74-5.5399-.1442-9.3067.3881-11.1389-1.3096-19.2931-5.0161-30.1094-10.0058-27.2983-37.3664-62.4351-67.3694-56.5301-13.6172-25.8154-31.4631-47.2219-56.2993-59.5851-27.4279-13.5206-56.3519-4.2761-59.4787,33.3884-10.8817-7.7385-25.4747-12.3584-35.1286-10.2842-47.4854,9.6703-23.2041,108.8614,39.0282,138.5532Zm-56.5876-89.3309c-5.4891-46.4457,23.3466-54.6998,58.3163-27.0872,1.6224-79.6311,78.4737-40.1789,106.1586,21.1954,39.0379-9.153,79.641,53.0367,67.3711,92.0976,30.4857,7.8808,78.8863,85.8717,41.4296,110.0188-11.7051,4.5036-23.5266-3.7769-21.8878-2.7602-25.8677-14.6192-201.9886-115.9729-202.7073-116.4099-23.2483-14.2344-44.8561-47.9323-48.6805-77.0545Z"/><g class="cls-18"><path class="cls-13" d="m375.0554,212.2941l-21.5161-12.4845c-.2178-.1277-.3537-.3601-.3537-.6105v-14.5635h1.4129v14.1558l21.1626,12.283-.7056,1.2197Z"/><path class="cls-13" d="m356.6169,183.8531c0,2.1756-1.2179,3.2282-2.7241,2.3556-1.5029-.8742-2.7208-3.3429-2.7208-5.517s1.2179-3.2284,2.7208-2.3558c1.5062.8727,2.7241,3.343,2.7241,5.5171Z"/><path class="cls-13" d="m383.3489,260.5129c0,2.1739-1.2181,3.2282-2.7208,2.3556-1.5062-.8726-2.7241-3.3429-2.7241-5.517s1.2179-3.2299,2.7241-2.3558c1.5027.8726,2.7208,3.343,2.7208,5.5171Z"/><path class="cls-13" d="m407.239,317.842c0,2.1724-1.2181,3.23-2.7241,2.3558-1.5029-.8726-2.7224-3.343-2.7224-5.5186,0-2.1724,1.2196-3.2284,2.7224-2.3558,1.5061.8742,2.7241,3.3429,2.7241,5.5186Z"/><path class="cls-13" d="m370.8645,249.7179c0,2.1741-1.2227,3.2284-2.7256,2.3573-1.5045-.8741-2.7241-3.3445-2.7241-5.5185,0-2.1724,1.2196-3.2284,2.7241-2.3558,1.5029.8742,2.7256,3.3429,2.7256,5.517Z"/><path class="cls-13" d="m348.1303,209.7615c0,2.1758-1.2196,3.23-2.7241,2.3575-1.5029-.8726-2.7224-3.343-2.7224-5.517,0-2.1758,1.2196-3.23,2.7224-2.3558,1.5045.8726,2.7241,3.3429,2.7241,5.5153Z"/><path class="cls-13" d="m336.9178,208.8988c0,2.1741-1.2179,3.2284-2.7241,2.3558-1.5027-.8726-2.7208-3.3447-2.7208-5.5171,0-2.1739,1.2181-3.2282,2.7208-2.3556,1.5062.8726,2.7241,3.3429,2.7241,5.517Z"/><path class="cls-13" d="m326.5256,210.7405c0,2.1724-1.2212,3.2267-2.7241,2.3541s-2.7241-3.3412-2.7241-5.5153,1.2212-3.2284,2.7241-2.3575c1.5029.8742,2.7241,3.343,2.7241,5.5186Z"/><path class="cls-13" d="m320.2835,207.1177c0,2.1741-1.2196,3.2284-2.7224,2.3558-1.5045-.8726-2.7226-3.3414-2.7226-5.5154,0-2.1756,1.2181-3.2299,2.7226-2.3573,1.5029.8726,2.7224,3.3429,2.7224,5.517Z"/><path class="cls-13" d="m362.242,327.9723c0,2.1756-1.2181,3.2299-2.7209,2.3556-1.5061-.8726-2.7256-3.3429-2.7256-5.5153,0-2.1758,1.2196-3.2284,2.7256-2.3575,1.5029.8742,2.7209,3.3447,2.7209,5.5171Z"/><path class="cls-13" d="m332.9006,214.4404c0,2.1739-1.2181,3.2299-2.7209,2.3556-1.5044-.8742-2.7241-3.3429-2.7241-5.517s1.2197-3.2284,2.7241-2.3573c1.5029.8741,2.7209,3.3445,2.7209,5.5186Z"/><path class="cls-13" d="m337.1864,226.3977c0,2.1756-1.2196,3.2282-2.7258,2.3556-1.5012-.8726-2.7241-3.3412-2.7241-5.5153s1.2229-3.23,2.7241-2.3558c1.5062.8726,2.7258,3.3414,2.7258,5.5154Z"/><path class="cls-13" d="m319.483,230.7899c0,2.1724-1.2181,3.2267-2.7209,2.3558-1.5061-.8727-2.7241-3.3447-2.7241-5.5186s1.2181-3.2284,2.7241-2.3558c1.5029.8726,2.7209,3.3429,2.7209,5.5186Z"/><path class="cls-13" d="m316.1874,239.7792c0,2.1741-1.2179,3.2299-2.7241,2.3558-1.5012-.8726-2.7208-3.343-2.7208-5.5171,0-2.1724,1.2196-3.2299,2.7208-2.3573,1.5062.8742,2.7241,3.3445,2.7241,5.5186Z"/><path class="cls-13" d="m317.8901,256.9669c0,3.2971-1.85,4.8982-4.1304,3.5739-2.2805-1.3245-4.1304-5.0702-4.1304-8.3673s1.8499-4.8965,4.1304-3.5737c2.2804,1.3228,4.1304,5.07,4.1304,8.3671Z"/><path class="cls-13" d="m274.6922,257.3369c0,3.2971-1.8499,4.8965-4.1304,3.5739-2.2804-1.3245-4.1303-5.0717-4.1303-8.3673,0-3.2986,1.8499-4.898,4.1303-3.5737,2.2805,1.3228,4.1304,5.07,4.1304,8.3671Z"/><path class="cls-13" d="m294.5271,261.7357c0,3.2988-1.8516,4.8982-4.1303,3.5739-2.2837-1.3245-4.1321-5.0685-4.1321-8.3671s1.8484-4.8965,4.1321-3.5739c2.2787,1.3245,4.1303,5.0717,4.1303,8.3671Z"/><path class="cls-13" d="m379.7588,277.5681c0,3.2988-1.8499,4.8982-4.1304,3.5737-2.2837-1.3243-4.1303-5.0684-4.1303-8.3671,0-3.2954,1.8465-4.8949,4.1303-3.5722,2.2805,1.3228,4.1304,5.0702,4.1304,8.3656Z"/><path class="cls-13" d="m406.833,341.4865c0,3.2971-1.8499,4.8982-4.1304,3.572-2.2804-1.3227-4.1303-5.0684-4.1303-8.3671,0-3.2954,1.8499-4.8965,4.1303-3.5737,2.2805,1.326,4.1304,5.0717,4.1304,8.3688Z"/><path class="cls-13" d="m367.2319,295.6121c0,3.2954-1.85,4.898-4.1304,3.572-2.2821-1.3243-4.1304-5.0684-4.1304-8.3655,0-3.2988,1.8484-4.8982,4.1304-3.5754,2.2804,1.3227,4.1304,5.0717,4.1304,8.3688Z"/><path class="cls-13" d="m333.7371,289.7315c0,3.2971-1.8499,4.8965-4.1304,3.5722-2.2804-1.3228-4.1303-5.0668-4.1303-8.3655s1.8499-4.8965,4.1303-3.5722c2.2805,1.3228,4.1304,5.07,4.1304,8.3655Z"/><path class="cls-13" d="m344.09,295.743c0,3.2971-1.8499,4.8965-4.1304,3.572-2.2805-1.326-4.1304-5.07-4.1304-8.3671s1.8499-4.8965,4.1304-3.5737c2.2805,1.3228,4.1304,5.07,4.1304,8.3688Z"/><path class="cls-13" d="m352.2607,267.7782c0,3.2971-1.8516,4.8965-4.1304,3.5722-2.2804-1.3228-4.1319-5.0684-4.1319-8.3671s1.8516-4.8965,4.1319-3.5739c2.2789,1.3228,4.1304,5.0717,4.1304,8.3688Z"/><path class="cls-13" d="m366.464,277.4011c0,3.2971-1.8514,4.8965-4.1319,3.572-2.2804-1.3227-4.1304-5.07-4.1304-8.3671s1.85-4.8965,4.1304-3.5737c2.2805,1.3243,4.1319,5.07,4.1319,8.3688Z"/><path class="cls-13" d="m283.4622,301.2861c0,3.2988-1.85,4.8982-4.1304,3.5739-2.2805-1.3228-4.1304-5.0702-4.1304-8.3688s1.8499-4.8965,4.1304-3.5722c2.2804,1.3228,4.1304,5.07,4.1304,8.3671Z"/><path class="cls-13" d="m313.9659,289.5122c0,2.1741-1.2179,3.2299-2.7241,2.3558-1.5027-.8727-2.7208-3.343-2.7208-5.5171,0-2.1724,1.2181-3.2299,2.7208-2.3556,1.5062.8741,2.7241,3.3429,2.7241,5.517Z"/><path class="cls-13" d="m319.483,220.7578c0,2.1758-1.2181,3.23-2.7209,2.3575-1.5061-.8727-2.7241-3.343-2.7241-5.5171s1.2181-3.2282,2.7241-2.3556c1.5029.8726,2.7209,3.3412,2.7209,5.5153Z"/><path class="cls-13" d="m320.2835,281.926c0,2.1741-1.2196,3.2284-2.7224,2.3558-1.5045-.8726-2.7226-3.3447-2.7226-5.5171,0-2.1756,1.2181-3.2282,2.7226-2.3573,1.5029.8742,2.7224,3.3445,2.7224,5.5186Z"/><path class="cls-13" d="m384.2133,325.9619c0,2.1758-1.2196,3.23-2.7256,2.3592-1.5029-.8759-2.7209-3.343-2.7209-5.5186,0-2.1724,1.2181-3.2284,2.7209-2.3541,1.5061.8709,2.7256,3.3412,2.7256,5.5136Z"/><path class="cls-13" d="m376.0196,285.9287c0,2.1756-1.2179,3.2284-2.7241,2.3573-1.5012-.8742-2.7241-3.3445-2.7241-5.517,0-2.1756,1.2229-3.2299,2.7241-2.3541,1.5062.871,2.7241,3.3414,2.7241,5.5138Z"/><path class="cls-13" d="m388.5336,304.7306c0,2.1724-1.2229,3.23-2.7241,2.3558-1.5029-.8726-2.7258-3.343-2.7258-5.5154,0-2.1756,1.2229-3.2282,2.7258-2.3573,1.5012.8742,2.7241,3.3445,2.7241,5.517Z"/><path class="cls-13" d="m354.1548,301.5825c0,2.1724-1.2197,3.2284-2.7241,2.3541-1.5029-.871-2.7226-3.3414-2.7226-5.5154s1.2197-3.2282,2.7226-2.3573c1.5044.8742,2.7241,3.3462,2.7241,5.5186Z"/><path class="cls-13" d="m346.382,189.9839c0,2.1756-1.2181,3.2299-2.7241,2.3573-1.5029-.8741-2.7226-3.3429-2.7226-5.517s1.2197-3.2284,2.7226-2.3573c1.5061.8742,2.7241,3.3445,2.7241,5.517Z"/><path class="cls-13" d="m335.6262,189.9413c0,2.1741-1.2196,3.23-2.7256,2.3573-1.5029-.8741-2.7209-3.3429-2.7209-5.517s1.2181-3.2284,2.7209-2.3573c1.5061.8742,2.7256,3.3429,2.7256,5.517Z"/><path class="cls-13" d="m393.4793,237.4234l-36.494-21.179c-.1259-.0736-.2258-.1849-.2863-.3225l-6.0802-13.4764-11.805-6.8512-3.9143,3.3871v4.3988h-1.4112v-4.7213c0-.2064.0885-.3995.2456-.5353l4.5381-3.9242c.2258-.198.5597-.2275.8135-.0769l12.4385,7.2163c.1294.0753.2277.1851.2898.3209l6.0801,13.4766,36.291,21.066-.7056,1.2212Z"/><path class="cls-13" d="m342.6837,186.5525l-6.8938-13.9709-25.6843-14.9073.7056-1.2212,25.8692,15.0155c.1229.0704.2194.1735.2816.2979l6.9903,14.1609-1.2687.6253Z"/><path class="cls-13" d="m330.9736,186.1204l-8.5733-17.3728-13.7941-8.0037.7056-1.2229,13.9806,8.1135c.1195.0702.2178.1718.28.2979l8.6701,17.5611-1.2688.627Z"/><path class="cls-13" d="m328.698,253.696h-1.4112v-13.126c0-.203.0885-.3978.2456-.5304l5.0357-4.3564c.2226-.198.5567-.2275.812-.0785l12.049,6.9935-.7056,1.2197-11.6151-6.7384-4.4104,3.8144v12.802Z"/><path class="cls-13" d="m368.8902,246.4585h-1.4129v-10.4626l-5.7362-11.6218c-.1391-.28-.0754-.6171.1505-.83.2292-.2127.5648-.2471.8382-.0932l27.1429,15.7519-.7104,1.2214-25.1212-14.5783,4.777,9.6719c.0476.0982.0721.203.0721.3126v10.6281Z"/><path class="cls-13" d="m405.2204,314.098h-1.4129v-4.4791c0-.203.0883-.3995.2456-.5336l5.2779-4.5675c.226-.195.555-.2308.8169-.0738l11.8444,6.8773-.7106,1.2181-11.4104-6.6237-4.6509,4.0273v4.1549Z"/><path class="cls-13" d="m411.7278,285.6683l-43.7757-25.4026-4.4758,3.8733c-.2226.1948-.5599.2277-.812.0754l-21.6487-12.5614-6.8218,5.9034c-.2292.1997-.5631.2308-.8169.0786l-62.0782-36.0258.7073-1.2229,61.6461,35.7737,6.8202-5.9034c.2292-.1965.5631-.2277.8152-.0769l21.6489,12.5629,4.4758-3.8716c.2258-.1981.5599-.2293.8135-.0786l44.2079,25.6579-.7056,1.2181Z"/><path class="cls-13" d="m361.4972,262.3152h-1.4112v-23.9145l-13.4078-27.1608,1.2704-.6255,13.4766,27.3099c.0474.0982.0721.2047.0721.3143v24.0766Z"/><path class="cls-13" d="m318.2681,202.5862h-1.4127v-6.9871l-7.8614-15.919,1.2688-.6286,7.9333,16.0696c.0458.0967.0719.203.0719.3128v7.1524Z"/><path class="cls-13" d="m360.2267,323.4424h-1.4112v-6.9871l-7.8629-15.9205,1.2688-.6238,7.9333,16.0681c.0458.0966.0719.203.0719.311v7.1524Z"/><path class="cls-13" d="m350.7955,256.8164l-10.042-20.3425c-.0458-.0982-.0719-.203-.0719-.3126v-10.1696l-4.3023-8.7175-34.3086-19.9103.7056-1.2212,34.4951,20.0166c.1195.0704.2178.1737.2816.2997l4.4692,9.0563c.0458.0982.0719.2047.0719.311v10.1697l9.9699,20.195-1.2687.6255Z"/><path class="cls-13" d="m324.3172,234.2998c-.121,0-.2454-.031-.3552-.0966l-6.8773-3.9896.7121-1.2229,6.4403,3.7408,9.7636-8.4474.9217,1.0673-10.1449,8.7765c-.1294.113-.2947.1718-.4602.1718Z"/><path class="cls-13" d="m318.3518,221.3013l-.9218-1.0657,5.666-4.9031v-5.779h1.4112v6.1015c0,.2045-.0883.3993-.2456.5336l-5.9097,5.1126Z"/><rect class="cls-13" x="303.6057" y="201.5233" width="1.4144" height="36.3081" transform="translate(-65.7989 157.3734) rotate(-26.2693)"/><rect class="cls-13" x="306.8793" y="274.0727" width="1.4131" height="11.7365" transform="translate(-92.1396 165.0689) rotate(-26.2726)"/><path class="cls-13" d="m310.9652,253.7649l-29.7458-17.2632-9.9503,8.6079v7.2882h-1.4112v-7.6107c0-.2064.0885-.3995.2439-.5338l10.5739-9.148c.226-.1965.555-.2292.8154-.0786l30.1813,17.5168-.7073,1.2214Z"/><path class="cls-13" d="m280.0374,296.3487h-1.4129v-7.6107c0-.203.0883-.3978.2422-.5321l16.7966-14.6765.9249,1.0625-16.5509,14.4653v7.2916Z"/><path class="cls-13" d="m278.7048,271.7695c-.1229,0-.2456-.0295-.3554-.0949l-15.9583-9.2611-6.5877,5.6988-.9249-1.0658,6.969-6.0309c.2275-.1998.555-.2243.8169-.0754l15.9583,9.2627,25.2881-21.8796.92,1.069-25.6662,22.207c-.1294.113-.2947.1703-.46.1703Z"/><path class="cls-13" d="m414.465,298.5276l-61.6149-35.7588-8.2969,7.1818c-.2292.1981-.5566.2293-.8184.0769l-19.4438-11.2844-22.3609,19.3405c-.2228.2013-.555.2325-.8171.0769l-13.0409-7.5698-8.1987,7.0934c-.2226.1981-.5549.226-.8152.0769l-11.9197-6.9182v10.1909h-1.4127v-11.4171c0-.2521.1358-.4845.3535-.6122.2243-.1229.4929-.1229.7073.0017l12.545,7.28,8.2002-7.0917c.2226-.1981.5566-.2277.8152-.0754l13.0427,7.57,22.3593-19.3456c.2226-.198.5549-.2258.8152-.0753l19.4453,11.286,8.2967-7.1834c.2293-.1948.5599-.226.8203-.0738l62.0489,36.0111-.7106,1.2196Z"/><path class="cls-13" d="m318.2681,277.442h-1.4127v-7.7402c0-.2047.09-.3995.2456-.5338l7.8726-6.8118c.2228-.1965.5599-.226.8137-.0754l22.2628,12.92,6.0556-5.2387c.2226-.1965.5582-.226.8135-.0769l6.6794,3.8749-.7056,1.2212-6.2487-3.6245-6.0541,5.2387c-.2243.1981-.5566.2292-.8169.0769l-22.2594-12.9183-7.2458,6.2702v7.4176Z"/><path class="cls-13" d="m318.2681,315.4305h-1.4127v-18.8968c0-.2047.09-.4012.2456-.5354l6.414-5.5465v-18.3615c0-.2047.0885-.4012.2456-.5338l3.6589-3.166c.2292-.1998.5599-.2292.8154-.0786l24.3975,14.1558,2.6799-2.3198c.2226-.1948.555-.2275.8169-.0736l13.1163,7.6141,2.8519-2.4688.92,1.0707-3.2316,2.7962c-.2226.1948-.5534.2308-.8169.0736l-13.1163-7.6124-2.68,2.3181c-.2226.1965-.5597.2325-.8135.0753l-24.396-14.1558-3.0368,2.6292v18.3582c0,.2047-.0867.3995-.2456.5354l-6.4125,5.548v18.5744Z"/><path class="cls-13" d="m417.6426,305.6636l-20.367-11.8164-11.2238,9.7112-.9217-1.069,11.6054-10.0386c.2243-.1965.5517-.2325.8135-.0753l20.7991,12.0686-.7056,1.2196Z"/><rect class="cls-13" x="415.4327" y="333.6565" width="1.4076" height="26.4597" transform="translate(-92.7666 532.6747) rotate(-59.8701)"/><path class="cls-13" d="m431.1617,345.0652l-59.901-34.762c-.1212-.0687-.2178-.1735-.2816-.2979l-6.645-13.4635,1.2688-.6236,6.5483,13.2719,59.7161,34.6571-.7056,1.2181Z"/><path class="cls-13" d="m379.4053,323.9876l-12.3846-7.1851c-.1229-.0687-.2178-.1703-.2816-.2981l-10.5903-21.4588-21.6061-12.5418-2.454,2.1233-.9217-1.0707,2.8337-2.4507c.2243-.1948.555-.2308.8169-.0736l22.2236,12.8985c.1194.0687.2161.1735.2783.2981l10.5919,21.4605,12.2012,7.0803-.7071,1.2181Z"/><polygon class="cls-13" points="349.0994 299.4674 342.8376 295.8313 343.5497 294.6118 349.8117 298.2477 349.0994 299.4674"/><path class="cls-13" d="m425.774,361.8846l-50.8871-29.4348-9.9012,8.7747-.9381-1.0591,10.2826-9.1104c.2292-.2013.5567-.2357.8219-.0818l51.3275,29.6886-.7056,1.2229Z"/><path class="cls-13" d="m307.5863,303.1507h-1.4112v-9.9257l-12.401-7.1965-7.6501,6.6219-.9232-1.0689,8.0298-6.9511c.2325-.1998.5599-.2292.8203-.0754l13.185,7.6552c.2144.1244.3504.3584.3504.6089v10.3317Z"/><path class="cls-13" d="m344.8382,239.4109c0,2.1724-1.2197,3.2267-2.7226,2.3541-1.5061-.871-2.7241-3.343-2.7241-5.5171s1.2181-3.2282,2.7241-2.3556c1.5029.8742,2.7226,3.3429,2.7226,5.5186Z"/><path class="cls-13" d="m349.5366,248.7619c0,2.1741-1.2196,3.2299-2.7258,2.3558-1.5012-.871-2.7208-3.3414-2.7208-5.5171,0-2.1739,1.2196-3.2282,2.7208-2.3556,1.5062.8726,2.7258,3.3429,2.7258,5.517Z"/><path class="cls-13" d="m356.6365,334.3111l-13.9642-24.2288-16.0141-9.8013v13.3865h-1.4112v-14.647c0-.2572.1376-.4912.3603-.6156.2226-.1261.4944-.1178.7138.0131l17.2417,10.556c.0999.0622.1834.1472.2439.2488l14.0527,24.3827-1.2229.7056Z"/></g><path class="cls-22" d="m334.8208,221.1048c-15.7013,36.9328-56.2733,57.3177-101.4781,55.3417-1.159-.6793-2.2886-1.3277-3.3888-1.9481-.4813-.2831-.9872-.5648-1.4685-.8479-8.2443-4.7426-15.6701-9.0352-21.9664-12.6498-.4518-.2538-.9331-.5354-1.385-.7891-.9314-.5369-1.8056-1.0462-2.6815-1.5553-30.381-17.5332-55.0306-60.027-55.0306-94.9248,0-16.6868,5.6184-28.6032,14.8517-34.5327,9.5163.7907,20.9235,6.0703,33.092,15.6719.1147-5.761.6204-10.872,1.4963-15.4165,1.8351.8462,3.6981,1.8073,5.5905,2.9073,1.6945,1.0184,3.3593,2.0611,5.0554,3.1908,1.4947-17.2239,8.5832-29.3939,19.2554-35.2368,25.0179.9872,58.4472,29.5609,74.7674,65.7586,13.6385-3.1906,27.472,2.3164,39.1902,12.5368,1.665,14.3997-.113,28.8848-5.9,42.4938Z"/><path class="cls-17" d="m317.0273,218.5837c-15.6996,36.9344-56.2552,57.2997-101.4716,55.3255-18.3925-10.5872-30.6249-17.643-30.8934-17.7936-30.3843-17.525-55.0274-60.0205-55.0274-94.9231,0-22.158,9.9273-35.8865,25.0016-38.4584,8.611-1.4947,18.9296.6875,30.0257,7.0869,1.7042,1.0182,3.3791,2.066,5.0538,3.2005,1.5552-17.9131,9.1513-30.3238,20.516-35.916,7.1164-3.5296,15.7306-4.3973,25.27-2.274,6.1308,1.3458,12.6808,3.947,19.4404,7.8367,20.367,11.7822,38.5484,32.9267,50.5696,56.5811,4.1581-1.1656,8.855-1.2261,13.9071-.0883,6.0113,19.7972,5.6544,40.4622-2.3919,59.4229Z"/><path class="cls-16" d="m317.0306,218.592c-15.6981,36.9311-56.2438,57.2898-101.4764,55.3122-4.3482-2.5129-8.3869-4.8278-11.972-6.9166-11.5481-6.6353-18.7201-10.7573-18.9182-10.872-30.381-17.5332-55.0291-60.027-55.0291-94.9248,0-22.1662,9.9372-35.8882,24.9869-38.4567,8.6405-1.498,18.9461.6761,30.0422,7.0869,1.696,1.015,3.3888,2.0611,5.0553,3.1891,1.552-17.9,9.1482-30.3221,20.5259-35.9145,7.1164-3.5294,15.7274-4.3758,25.27-2.2591,6.1277,1.3277,12.6776,3.9536,19.4274,7.822,8.5259,4.9408,16.6851,11.5202,24.111,19.257,10.3922,10.6721,19.455,23.5757,26.4586,37.3255,4.15-1.1574,8.8648-1.213,13.9185-.0835,5.9868,19.7925,5.6479,40.4607-2.3999,59.4344Z"/><path class="cls-13" d="m221.536,274.595c-1.9907,0-3.9896-.0441-6.0065-.1326l-.2553-.0736-4.7607-2.7488c-2.5571-1.4734-4.9735-2.8664-7.2113-4.1712l-12.5222-7.195c-3.9993-2.2985-6.2782-3.6082-6.3895-3.6704-30.5039-17.6051-55.3156-60.4069-55.3156-95.4143,0-21.7029,9.5148-36.2843,25.4534-39.0053,9.0777-1.5716,19.5927.9005,30.4138,7.1541,1.7042,1.0199,3.0679,1.8712,4.3088,2.6881,1.7042-17.1205,9.0499-29.6836,20.7485-35.4314,7.2834-3.6114,16.1516-4.4054,25.6368-2.3017,6.2175,1.3456,12.8068,3.9977,19.5828,7.8791,8.4637,4.9064,16.6181,11.4188,24.2371,19.357,10.15,10.4251,19.2554,23.2302,26.3473,37.0571,4.1909-1.087,8.8174-1.0756,13.7483.0278l.3175.0704.0951.311c6.2504,20.6617,5.4139,41.3463-2.4197,59.8143h-.0017c-14.5798,34.3019-51.876,55.7853-96.0069,55.7853Zm-5.8214-1.2409c46.2444,1.9694,85.7619-19.5992,100.8035-54.98h-.0017c7.691-18.1324,8.5457-38.4371,2.4753-58.7419-4.8082-1.0281-9.2888-.9822-13.3309.1457l-.4387.1229-.2062-.406c-7.0723-13.8826-16.1876-26.7419-26.362-37.1897-7.5502-7.8662-15.6211-14.3131-23.9915-19.1653-6.6745-3.8243-13.1574-6.4354-19.2653-7.7581-9.2365-2.048-17.8492-1.2836-24.9051,2.2133-11.5464,5.674-18.7266,18.2681-20.2179,35.4626l-.0818.9461-.7859-.5321c-1.4356-.9708-2.986-1.9496-5.0291-3.1725-10.5853-6.1163-20.8417-8.5505-29.6608-7.015-15.3575,2.621-24.5251,16.7916-24.5251,37.9051,0,34.6522,24.5611,77.0201,54.7506,94.4452.1048.059,2.3885,1.3719,6.3945,3.6736l12.5237,7.1967c2.2395,1.3047,4.6541,2.6963,7.2098,4.1697l4.6444,2.6799Z"/><path class="cls-16" d="m283.4588,153.228c.3388,51.9808-32.9219,96.4785-79.8767,113.7596-11.5481-6.6353-18.7201-10.7573-18.9182-10.872-30.381-17.5332-55.0291-60.027-55.0291-94.9248,0-22.1662,9.9372-35.8882,24.9869-38.4567,8.6405-1.498,18.9461.6761,30.0422,7.0869,1.696,1.015,3.3888,2.0611,5.0553,3.1891,1.552-17.9,9.1482-30.3221,20.5259-35.9145,7.1164-3.5294,15.7274-4.3758,25.27-2.2591,6.1277,1.3277,12.6776,3.9536,19.4274,7.822,8.5259,4.9408,16.6851,11.5202,24.111,19.257,2.8239,9.9666,4.3497,20.4701,4.4054,31.3125Z"/><path class="cls-13" d="m203.5297,267.6015l-12.7497-7.3276c-3.9993-2.2985-6.2782-3.6082-6.3895-3.6704-30.5039-17.6051-55.3156-60.4069-55.3156-95.4143,0-21.7029,9.5148-36.2843,25.4534-39.0053,9.0777-1.5716,19.5927.9005,30.4138,7.1541,1.7042,1.0199,3.0679,1.8712,4.3088,2.6881,1.7042-17.1205,9.0499-29.6836,20.7485-35.4314,7.2834-3.6114,16.1516-4.4038,25.6368-2.3033,6.2175,1.3473,12.8068,3.9993,19.5828,7.8808,8.4637,4.9064,16.6181,11.4188,24.2371,19.357l.1343.2342c2.8812,10.1728,4.371,20.7582,4.4266,31.4616h0c.3291,50.5728-31.9182,96.5013-80.2418,114.2866l-.2456.09Zm-43.5154-144.7627c-1.8138,0-3.5836.1474-5.2977.4452-15.3575,2.621-24.5251,16.7916-24.5251,37.9051,0,34.6522,24.5611,77.0201,54.7506,94.4452.1048.059,2.3885,1.3719,6.3945,3.6736l12.2977,7.0656c47.7472-17.6869,79.5935-63.1228,79.2661-113.1422h0c-.054-10.556-1.5159-20.9958-4.3465-31.0294-7.5175-7.8171-15.5556-14.2313-23.8916-19.0622-6.6745-3.8243-13.1574-6.4354-19.2653-7.7581-9.2365-2.048-17.8492-1.2836-24.9051,2.2133-11.5464,5.674-18.7266,18.2681-20.2179,35.4626l-.0818.9461-.7859-.5321c-1.4356-.9708-2.986-1.9496-5.0291-3.1725-8.5276-4.9277-16.8424-7.4602-24.3631-7.4602Z"/><path class="cls-13" d="m220.2656,193.078l-63.1997,91.7063c-2.7142,3.7309-1.5847,8.9941,2.4229,11.2827l127.7845,80.0143c6.2961,3.5983,20.6912-1.1099,15.2723-14.0479l-62.4777-166.8878c-4.4218-8.6422-15.7749-7.9318-19.8022-2.0676Z"/><path class="cls-10" d="m288.8613,376.0388c-1.2967,0-2.5571-.3453-3.7457-1.0231l-131.9558-75.4076c-1.8547-1.0608-3.1759-2.8681-3.6245-4.9587-.4486-2.0889.0148-4.2793,1.272-6.0081l68.4761-94.1554c1.434-1.9726,3.6458-3.1023,6.067-3.1023,3.1841,0,5.9607,1.9188,7.0738,4.89l63.4797,169.5662c.8808,2.3525.5812,4.8605-.8201,6.8824-1.439,2.0759-3.7653,3.3167-6.221,3.3167h-.0015Z"/><path class="cls-13" d="m225.3488,191.6013c3.0926,0,5.7889,1.8646,6.8693,4.7492l63.4797,169.5647c.8561,2.2852.5664,4.7197-.7941,6.6809-1.3979,2.0185-3.6589,3.2235-6.0423,3.2235-1.259,0-2.4819-.3341-3.6361-.9938l-131.9556-75.4091c-1.8024-1.0298-3.086-2.7848-3.5214-4.813-.4355-2.0299.0148-4.1549,1.236-5.8346l68.476-94.1554c1.3932-1.9138,3.5378-3.0123,5.8886-3.0123h0Zm0-.4387c-2.3263,0-4.6689,1.0298-6.2438,3.194l-68.476,94.1554c-2.7144,3.7326-1.5847,8.9958,2.4229,11.2844l131.9556,75.4091c1.272.7269,2.5866,1.0528,3.8538,1.0528,5.0078,0,9.2757-5.0751,7.2473-10.497l-63.4797-169.5647c-1.2261-3.2758-4.2384-5.034-7.2802-5.034h0Z"/><path class="cls-13" d="m219.6566,219.4466l12.771,7.5977c1.2802.7612,1.9711,2.2232,1.7485,3.6966l-7.3554,48.4642c-.3881,2.5523-3.2202,3.9143-5.4548,2.6227l-1.2655-.7286c-1.0477-.6074-1.7288-1.6911-1.8205-2.8993l-4.1499-55.3318c-.2211-2.9549,2.9777-4.9374,5.5267-3.4215Z"/><path class="cls-13" d="m228.867,291.683l-17.1453-9.2806-5.9443-3.2235-.5943,28.8292c-.1145,6.2177,6.1506,14.6993,13.9922,18.9509,7.8629,4.2531,14.3344,2.675,14.4473-3.5427l.5943-28.8292-5.35-2.9042Zm-3.3365-1.8056l-10.4936-5.6693,10.4936,5.6693Z"/><path class="cls-9" d="m222.2793,316.9022c-.0525,0-.1048-.0146-.1522-.0441l-6.8006-4.0257c-.0474-.0262-.1784-.1014-.1505-.3323l1.6616-9.8651c.0049-.3274-.0639-.5582-.1981-.74-1.0018-1.3113-1.5994-2.8289-1.5994-4.0666,0-1.3326.6695-2.1282,1.791-2.1282.5812,0,1.2507.2127,1.9399.6122,2.2411,1.3064,4.0649,4.1648,4.0649,6.3716,0,.9855-.3651,1.6715-1.0543,1.9842-.437.1457-.7286.5762-.6794,1.033l1.4931,10.8621c.0131.1031-.0312.18-.0704.2243-.0622.0721-.1539.1145-.2456.1145Z"/><path class="cls-13" d="m216.8311,296.0312c.5205,0,1.1344.1963,1.7713.568,2.1151,1.2328,3.9013,4.0174,3.9013,6.0851,0,.5894-.149,1.3587-.7956,1.6568-.6189.2079-1.002.7809-.9332,1.4144l1.5176,10.8146-6.7923-3.9993,1.665-9.8816.0099-.054v-.0557c0-.3438-.0902-.64-.2751-.8905-.9577-1.2507-1.5273-2.6948-1.5273-3.8604,0-.6712.1883-1.7974,1.4586-1.7974h0Zm0-.6632c-1.2672,0-2.1233.8793-2.1233,2.4606,0,1.3523.6581,2.9484,1.6633,4.2647.1031.1391.1391.3126.1391.4861l-1.665,9.8814c-.0344.2768.0704.5207.3126.6581l6.7955,4.0223c.1048.0639.2163.0934.3259.0934.3634,0,.6974-.3177.6449-.717l-1.4913-10.854c-.0344-.311.1735-.5876.4861-.6923.7629-.3472,1.2492-1.1101,1.2492-2.2871,0-2.3246-1.9089-5.3057-4.2303-6.6597-.7661-.4452-1.4864-.6565-2.1069-.6565h0Z"/></g><path class="cls-1" d="m299.9998,94.349h.0004c99.3446,0,179.9998,80.6552,179.9998,179.9998v95.0002H120v-95.0002c0-99.3446,80.6552-179.9998,179.9998-179.9998Z"/><g class="cls-19"><path class="cls-11" d="m362.059-361.0214c-204.288-22.7512-388.4184,43.9697-411.2478,149.0411C-71.9793-106.909,75.1362-3.2521,279.4242,19.4989c204.288,22.7512,388.4189-43.9697,411.2483-149.0411,22.8294-105.0714-124.2861-208.6889-328.6135-231.4792Zm224.8779,213.1291c-15.6782,64.7953-147.9798,104.5999-295.528,89.0001-147.5481-15.5995-254.4662-80.7879-238.7881-145.5439,15.6782-64.756,147.9803-104.5999,295.528-89.0001,147.5481,15.6388,254.4662,80.7879,238.7881,145.5439Z"/></g></g></g></svg>