<?xml version="1.0" encoding="UTF-8"?><svg xmlns="http://www.w3.org/2000/svg" width="600" height="450" xmlns:xlink="http://www.w3.org/1999/xlink" viewBox="0 0 600 450"><defs><style>.cls-1,.cls-2{fill:none;}.cls-3{fill:url(#_Безымянный_градиент_22);mix-blend-mode:multiply;}.cls-4{fill:url(#linear-gradient);}.cls-5{clip-path:url(#clippath);}.cls-6{fill:#f6d84c;}.cls-7,.cls-8{fill:#fff;}.cls-9,.cls-10{fill:#ffd936;}.cls-11{fill:#f0c8aa;}.cls-12,.cls-13{fill:#c0c7cb;}.cls-14{fill:#d48116;}.cls-15{fill:#d7dce0;}.cls-16{fill:#373737;}.cls-17{fill:#3a3a3a;}.cls-8,.cls-18,.cls-13{stroke:#373737;stroke-miterlimit:10;}.cls-8,.cls-18,.cls-13,.cls-2{stroke-width:2px;}.cls-18{fill:#95999f;}.cls-19{clip-path:url(#clippath-1);}.cls-2{stroke:#3a3a3a;stroke-linecap:round;stroke-linejoin:round;}.cls-10{opacity:.2;}.cls-20{isolation:isolate;}</style><clipPath id="clippath"><rect class="cls-1" x="0" y="-510.4931" width="600" height="450"/></clipPath><linearGradient id="linear-gradient" x1="391.9578" y1="535.4813" x2="214.2852" y2="-64.4026" gradientUnits="userSpaceOnUse"><stop offset="0" stop-color="#3ddceb"/><stop offset="1" stop-color="#fff"/></linearGradient><clipPath id="clippath-1"><rect class="cls-1" x="0" width="600" height="450"/></clipPath><linearGradient id="_Безымянный_градиент_22" x1="401.7928" y1="340.3678" x2="481.0801" y2="203.0381" gradientUnits="userSpaceOnUse"><stop offset="0" stop-color="#cacdd1"/><stop offset="1" stop-color="#b0b0b6" stop-opacity="0"/></linearGradient></defs><g class="cls-20"><g id="Layer_1"><g class="cls-5"><path class="cls-10" d="m362.059-382.0076c-204.288-22.7512-388.4184,43.9697-411.2478,149.0411C-71.9793-127.8951,75.1362-24.2383,279.4242-1.4873c204.288,22.7512,388.4189-43.9697,411.2483-149.0411,22.8294-105.0714-124.2861-208.6889-328.6135-231.4792Zm224.8779,213.1291c-15.6782,64.7953-147.9798,104.5999-295.528,89.0001-147.5481-15.5995-254.4662-80.7879-238.7881-145.5439,15.6782-64.756,147.9803-104.5999,295.528-89.0001,147.5481,15.6388,254.4662,80.7879,238.7881,145.5439Z"/></g><rect class="cls-4" x="0" width="600" height="450"/><path class="cls-1" d="m299.9998,75.1682h.0004c99.3446,0,179.9998,80.6552,179.9998,179.9998v95.0002H120v-95.0002c0-99.3446,80.6552-179.9998,179.9998-179.9998Z"/><g class="cls-19"><path class="cls-10" d="m362.059,128.4855C157.771,105.7343-26.3593,172.4552-49.1888,277.5266c-22.7906,105.0714,124.3249,208.7283,328.613,231.4792,204.288,22.7512,388.4189-43.9697,411.2483-149.0411,22.8294-105.0714-124.2861-208.6889-328.6135-231.4792Zm224.8779,213.1291c-15.6782,64.7953-147.9798,104.5999-295.528,89.0001-147.5481-15.5995-254.4662-80.7879-238.7881-145.5439,15.6782-64.756,147.9803-104.5999,295.528-89.0001,147.5481,15.6388,254.4662,80.7879,238.7881,145.5439Z"/><path class="cls-3" d="m411.032,141.242l-163.6486,114.9597c-3.9545,2.2291-3.9931,7.9112-.0711,10.1949l196.6822,114.504c1.8289,1.0637,15.4039-3.0938,17.233-4.1615l-38.7374-18.6989,24.1113,25.496c1.8292,1.0658,15.4041-3.0918,17.233-4.1617l180.3386-105.5579-233.1408-132.5746Z"/><path class="cls-16" d="m457.821,196.5219v20.396l-.0385,162.4377c0,3.8796-4.9554,5.7189-9.0256,3.3106l-15.7492-9.2899-178.0737-104.7186c-4.9938-2.9274-8.1059-7.7319-8.0672-12.494V73.3276c.0384-3.877,4.9938-5.7165,9.0661-3.3465l193.8229,114.047c4.9533,2.923,8.0267,7.7269,8.0652,12.4938Z"/><path class="cls-16" d="m457.821,196.5219v20.396l-5.1867,3.0529L253.4338,91.6406l-6.567-5.4852v-12.8279c.0384-3.877,4.9938-5.7165,9.0661-3.3465l193.8229,114.047c4.9533,2.923,8.0267,7.7269,8.0652,12.4938Z"/><path class="cls-8" d="m452.6486,198.9668l-.0123,21.0122-.0243,161.8075c.006,3.8615-4.9656,5.7264-9.0358,3.3178l-15.7165-9.2897-178.1063-104.7165c-1.1184-.6511-2.1132-1.404-3.0348-2.2335-3.1649-2.8468-5.0427-6.5767-5.0285-10.2725V95.2403l.0042-19.4963c.0507-3.8579,5.0001-5.6957,9.0662-3.3159l193.8249,114.0348c4.9816,2.9329,8.0531,7.7063,8.0633,12.5039Z"/><path class="cls-16" d="m419.0831,272.8031l.0162.0253-6.9651,3.8585-2.302-3.6713c-1.62-.5568-3.3152-1.3621-5.0691-2.4815-10.6375-6.777-19.1656-21.5252-19.0885-32.9373.0081-.9759.1014-1.8753.2314-2.7381l-2.4238-3.8657,6.4292-3.5248c.5459-.3919,1.1327-.7162,1.762-.9649l.0588-.0329.0062.0106c3.4855-1.3535,8.1851-.5701,13.3557,2.7177,10.6171,6.7778,19.1656,21.5252,19.0885,32.9392-.0468,5.3301-1.9813,8.9657-5.0994,10.6652Z"/><path class="cls-16" d="m378.687,294.8483c.0326-4.0865.9014-7.6839,2.3995-10.6221l-.8932-2.5758s6.5612-3.6404,6.8069-3.7791l.8282-.4348c4.5269-2.1122,10.3858-1.6616,16.7988,2.4313,14.267,9.0765,25.7997,32.5686,25.684,47.882l-7.4746,4.1613-16.6179-16.48,3.2946-.9373-30.8263-19.6454Z"/><path class="cls-9" d="m397.6194,233.3602c10.6171,6.7776,19.1656,21.5249,19.0885,32.9392-.0975,11.4107-8.782,15.177-19.4215,8.3959-10.6354-6.779-19.1635-21.525-19.0864-32.937.0955-11.4131,8.782-15.161,19.4194-8.3981Z"/><path class="cls-16" d="m406.3972,278.5198c-2.8724-.1811-6.086-1.3358-9.3524-3.4176-10.7389-6.8443-19.4092-21.8164-19.3321-33.3788.0466-5.4193,2.0037-9.3926,5.5136-11.1871,3.8184-1.9478,9.1515-1.0715,14.6347,2.4167h.0019c10.737,6.8545,19.4095,21.8288,19.3323,33.381-.0468,5.4274-2.0078,9.4046-5.5239,11.1987-1.5408.7859-3.3291,1.1097-5.274.9871Zm-17.8787-48.003c-1.7823-.1124-3.4104.1808-4.8072.8945-3.1974,1.6356-4.9818,5.3215-5.0244,10.3816-.0771,11.2477,8.376,25.8246,18.8409,32.4953,5.1705,3.2938,10.1502,4.1599,13.6581,2.3692,3.2034-1.635,4.992-5.3246,5.0346-10.393.0771-11.2375-8.3781-25.8164-18.8449-32.4975h.0019c-3.1161-1.9808-6.1631-3.0802-8.8591-3.2502Z"/><path class="cls-9" d="m397.1525,284.0311c14.267,9.0744,25.7998,32.5665,25.684,47.88l-51.6241-32.9015c.1158-15.2972,11.6912-24.0782,25.9401-14.9785Z"/><path class="cls-16" d="m423.3177,332.7779l-52.5945-33.521.0021-.284c.0628-8.2117,3.4126-14.8031,8.9605-17.6345,5.0649-2.5878,11.354-1.7731,17.7082,2.2837h0c14.9775,9.5273,26.0413,33.3715,25.9297,48.3239l-.006.832Zm-51.616-34.0197l50.6415,32.2774c-.3126-14.4576-11.2526-37.5772-25.4324-46.5994h-.0019c-6.0455-3.863-11.9916-4.6499-16.7378-2.2228-5.1828,2.6432-8.3354,8.8169-8.4693,16.5448Z"/><polygon class="cls-16" points="309.0606 185.0586 316.8803 190.0237 316.8803 188.1886 309.0606 183.2214 309.0606 185.0586"/><polygon class="cls-16" points="297.9703 178.0155 307.5846 184.121 307.5846 182.2838 297.9703 176.1782 297.9703 178.0155"/><polygon class="cls-16" points="287.7064 171.4954 295.0166 176.1402 295.0166 174.303 287.7064 169.6603 287.7064 171.4954"/><polygon class="cls-16" points="271.1108 160.9567 285.4572 170.0685 285.4572 168.2334 271.1108 159.1215 271.1108 160.9567"/><polygon class="cls-16" points="319.1093 191.4269 347.7026 209.3381 347.7026 207.4988 319.1093 189.5878 319.1093 191.4269"/><polygon class="cls-16" points="274.9091 167.5014 282.0488 172.0341 282.0488 170.1987 274.9091 165.6663 274.9091 167.5014"/><polygon class="cls-16" points="263.7397 160.4148 271.3097 165.218 271.3097 163.3808 263.7397 158.5776 263.7397 160.4148"/><polygon class="cls-16" points="320.7131 196.5727 347.7026 213.4774 347.7026 211.6422 320.7131 194.7376 320.7131 196.5727"/><polygon class="cls-16" points="312.266 191.2655 319.227 195.6386 319.227 193.8035 312.266 189.4303 312.266 191.2655"/><polygon class="cls-16" points="260.656 150.2061 282.3249 163.9597 282.3249 162.1224 260.656 148.3689 260.656 150.2061"/><polygon class="cls-16" points="320.7131 188.3225 347.7026 205.2292 347.7026 203.39 320.7131 186.4874 320.7131 188.3225"/><polygon class="cls-16" points="312.266 183.0155 319.227 187.3886 319.227 185.5532 312.266 181.1762 312.266 183.0155"/><polygon class="cls-16" points="289.3854 160.2086 312.8913 175.1458 312.8913 173.3086 289.3854 158.3714 289.3854 160.2086"/><polygon class="cls-16" points="336.7362 194.1683 347.7026 201.1041 347.7026 199.269 336.7362 192.3332 336.7362 194.1683"/><polygon class="cls-16" points="324.9355 186.707 333.8758 192.3599 333.8758 190.5248 324.9355 184.8698 324.9355 186.707"/><polygon class="cls-16" points="308.9693 176.6079 322.4447 185.131 322.4447 183.2938 308.9693 174.7725 308.9693 176.6079"/><polygon class="cls-16" points="294.2007 167.2682 307.1219 175.4419 307.1219 173.6046 294.2007 165.433 294.2007 167.2682"/><polygon class="cls-16" points="279.2473 157.8114 291.7991 165.7506 291.7991 163.9155 279.2473 155.9763 279.2473 157.8114"/><polygon class="cls-16" points="266.4945 149.7461 276.9411 156.3547 276.9411 154.5154 266.4945 147.9107 266.4945 149.7461"/><polygon class="cls-16" points="297.9703 203.1983 316.8803 215.2086 316.8803 213.3733 297.9703 201.3629 297.9703 203.1983"/><polygon class="cls-16" points="271.1108 186.1413 295.0166 201.3231 295.0166 199.4877 271.1108 184.3062 271.1108 186.1413"/><polygon class="cls-16" points="260.6034 179.47 268.5267 184.5006 268.5267 182.6634 260.6034 177.6328 260.6034 179.47"/><polygon class="cls-16" points="319.1093 216.6097 339.0788 229.1192 339.0788 227.284 319.1093 214.7725 319.1093 216.6097"/><polygon class="cls-16" points="284.8157 198.9745 302.6721 210.3075 302.6721 208.4702 284.8157 197.1373 284.8157 198.9745"/><polygon class="cls-16" points="304.1073 211.2201 310.7009 215.4036 310.7009 213.5684 304.1073 209.3829 304.1073 211.2201"/><polygon class="cls-16" points="274.4929 192.4225 282.0488 197.2167 282.0488 195.3795 274.4929 190.5832 274.4929 192.4225"/><polygon class="cls-16" points="264.4319 186.0371 272.9927 191.4692 272.9927 189.634 264.4319 184.1999 264.4319 186.0371"/><polygon class="cls-16" points="312.266 216.4504 319.227 220.8233 319.227 218.9882 312.266 214.615 312.266 216.4504"/><polygon class="cls-16" points="273.8028 183.7351 282.3249 189.1423 282.3249 187.3071 273.8028 181.8958 273.8028 183.7351"/><polygon class="cls-16" points="263.5104 177.201 270.4776 181.6252 270.4776 179.7859 263.5104 175.3637 263.5104 177.201"/><polygon class="cls-16" points="320.7131 213.5074 347.7026 230.4121 347.7026 228.5749 320.7131 211.6723 320.7131 213.5074"/><polygon class="cls-16" points="312.266 208.2001 319.227 212.5733 319.227 210.7381 312.266 206.3608 312.266 208.2001"/><polygon class="cls-16" points="302.538 189.4444 338.953 212.473 338.953 210.6358 302.538 187.6072 302.538 189.4444"/><polygon class="cls-16" points="289.1133 180.9527 298.5227 186.9054 298.5227 185.0682 289.1133 179.1176 289.1133 180.9527"/><polygon class="cls-16" points="269.5863 168.6052 286.6751 179.4125 286.6751 177.6688 286.8377 177.679 269.5863 166.768 269.5863 168.6052"/><polygon class="cls-16" points="289.3854 185.3914 312.8913 200.3284 312.8913 198.4914 289.3854 183.5542 289.3854 185.3914"/><polygon class="cls-16" points="260.7415 167.1888 285.8776 183.1626 285.8776 181.3254 260.7415 165.3516 260.7415 167.1888"/><polygon class="cls-16" points="321.4155 205.675 347.7026 222.1477 347.7026 220.3105 321.4155 203.8399 321.4155 205.675"/><polygon class="cls-16" points="315.9423 202.2463 320.104 204.8536 320.104 203.0164 315.9423 200.4091 315.9423 202.2463"/><polygon class="cls-16" points="336.7362 219.3532 347.7026 226.2909 347.7026 224.4537 336.7362 217.5179 336.7362 219.3532"/><polygon class="cls-16" points="326.6326 212.9631 333.8758 217.5427 333.8758 215.7076 326.6326 211.1279 326.6326 212.9631"/><polygon class="cls-16" points="304.8562 199.1926 324.8524 211.8378 324.8524 210.0027 304.8562 197.3574 304.8562 199.1926"/><polygon class="cls-16" points="281.5535 184.453 291.1759 190.5389 291.1759 188.7035 281.5535 182.6179 281.5535 184.453"/><polygon class="cls-16" points="266.4945 174.9307 274.6796 180.1057 274.6796 178.2706 266.4945 173.0935 266.4945 174.9307"/><polygon class="cls-16" points="275.9281 180.897 280.0511 183.5058 280.0511 181.6706 275.9281 179.0619 275.9281 180.897"/><polygon class="cls-16" points="293.423 191.9615 303.2647 198.1849 303.2647 196.3497 293.423 190.1243 293.423 191.9615"/><polygon class="cls-16" points="309.0606 259.0719 316.8803 264.0372 316.8803 262.2021 309.0606 257.2349 309.0606 259.0719"/><polygon class="cls-16" points="297.9703 252.029 307.5846 258.1345 307.5846 256.2973 297.9703 250.1938 297.9703 252.029"/><polygon class="cls-16" points="287.7064 245.5089 295.0166 250.1517 295.0166 248.3165 287.7064 243.6738 287.7064 245.5089"/><polygon class="cls-16" points="271.1108 234.9701 285.4572 244.082 285.4572 242.2469 271.1108 233.135 271.1108 234.9701"/><polygon class="cls-16" points="319.1093 265.4385 347.7026 283.3516 347.7026 281.5144 319.1093 263.6013 319.1093 265.4385"/><polygon class="cls-16" points="274.9091 241.5149 282.0488 246.0476 282.0488 244.2103 274.9091 239.6798 274.9091 241.5149"/><polygon class="cls-16" points="263.7397 234.4262 271.3097 239.2315 271.3097 237.3943 263.7397 232.5911 263.7397 234.4262"/><polygon class="cls-16" points="320.7131 270.5862 347.7026 287.4909 347.7026 285.6557 320.7131 268.7511 320.7131 270.5862"/><polygon class="cls-16" points="312.266 265.2769 319.227 269.6521 319.227 267.817 312.266 263.4417 312.266 265.2769"/><polygon class="cls-16" points="260.656 224.2196 282.3249 237.9732 282.3249 236.1359 260.656 222.3824 260.656 224.2196"/><polygon class="cls-16" points="320.7131 262.336 347.7026 279.2407 347.7026 277.4034 320.7131 260.5009 320.7131 262.336"/><polygon class="cls-16" points="312.266 257.0289 319.227 261.404 319.227 259.5667 312.266 255.1897 312.266 257.0289"/><polygon class="cls-16" points="289.3854 234.2221 312.8913 249.1572 312.8913 247.3221 289.3854 232.3849 289.3854 234.2221"/><polygon class="cls-16" points="336.7362 268.1818 347.7026 275.1156 347.7026 273.2804 336.7362 266.3467 336.7362 268.1818"/><polygon class="cls-16" points="324.9355 260.7205 333.8758 266.3713 333.8758 264.5362 324.9355 258.8833 324.9355 260.7205"/><polygon class="cls-16" points="308.9693 250.6212 322.4447 259.1443 322.4447 257.3073 308.9693 248.786 308.9693 250.6212"/><polygon class="cls-16" points="294.2007 241.2817 307.1219 249.4533 307.1219 247.6181 294.2007 239.4445 294.2007 241.2817"/><polygon class="cls-16" points="279.2473 231.8249 291.7991 239.7641 291.7991 237.929 279.2473 229.9877 279.2473 231.8249"/><polygon class="cls-16" points="266.4945 223.7595 276.9411 230.3661 276.9411 228.5289 266.4945 221.9242 266.4945 223.7595"/><polygon class="cls-16" points="302.538 263.4579 338.953 286.4865 338.953 284.6493 302.538 261.6207 302.538 263.4579"/><polygon class="cls-16" points="289.1133 254.9662 298.5227 260.9168 298.5227 259.0817 289.1133 253.129 289.1133 254.9662"/><polygon class="cls-16" points="269.5863 242.6187 286.6751 253.426 286.6751 251.6823 286.8377 251.6925 269.5863 240.7794 269.5863 242.6187"/><polygon class="cls-16" points="289.3854 259.4049 312.8913 274.3419 312.8913 272.5068 289.3854 257.5698 289.3854 259.4049"/><polygon class="cls-16" points="260.7415 241.2023 285.8776 257.1761 285.8776 255.3389 260.7415 239.3651 260.7415 241.2023"/><polygon class="cls-16" points="321.4155 279.6865 347.7026 296.1612 347.7026 294.324 321.4155 277.8513 321.4155 279.6865"/><polygon class="cls-16" points="315.9423 276.2578 320.104 278.8669 320.104 277.0298 315.9423 274.4226 315.9423 276.2578"/><polygon class="cls-16" points="336.7362 293.3665 347.7026 300.3044 347.7026 298.4653 336.7362 291.5295 336.7362 293.3665"/><polygon class="cls-16" points="326.6326 286.9765 333.8758 291.5562 333.8758 289.7211 326.6326 285.1393 326.6326 286.9765"/><polygon class="cls-16" points="304.8562 273.2061 324.8524 285.8513 324.8524 284.0141 304.8562 271.3689 304.8562 273.2061"/><polygon class="cls-16" points="281.5535 258.4665 291.1759 264.5524 291.1759 262.717 281.5535 256.6313 281.5535 258.4665"/><polygon class="cls-16" points="266.4945 248.9442 274.6796 254.1213 274.6796 252.2841 266.4945 247.1091 266.4945 248.9442"/><polygon class="cls-16" points="275.9281 254.9105 280.0511 257.5172 280.0511 255.682 275.9281 253.0754 275.9281 254.9105"/><polygon class="cls-16" points="293.423 265.975 303.2647 272.1983 303.2647 270.3611 293.423 264.1377 293.423 265.975"/><polygon class="cls-16" points="297.9703 228.8661 316.8803 240.8764 316.8803 239.0392 297.9703 227.0309 297.9703 228.8661"/><polygon class="cls-16" points="271.1108 211.8093 295.0166 226.9909 295.0166 225.1557 271.1108 209.9721 271.1108 211.8093"/><polygon class="cls-16" points="260.6034 205.138 268.5267 210.1684 268.5267 208.3314 260.6034 203.2987 260.6034 205.138"/><polygon class="cls-16" points="319.1093 242.2777 339.0788 254.7872 339.0788 252.95 319.1093 240.4405 319.1093 242.2777"/><polygon class="cls-16" points="284.8157 224.6425 302.6721 235.9755 302.6721 234.1382 284.8157 222.8032 284.8157 224.6425"/><polygon class="cls-16" points="304.1073 236.886 310.7009 241.0716 310.7009 239.2362 304.1073 235.0509 304.1073 236.886"/><polygon class="cls-16" points="274.4929 218.0903 282.0488 222.8847 282.0488 221.0475 274.4929 216.2512 274.4929 218.0903"/><polygon class="cls-16" points="264.4319 211.7049 272.9927 217.137 272.9927 215.3018 264.4319 209.8658 264.4319 211.7049"/><polygon class="cls-16" points="312.266 242.1182 319.227 246.4913 319.227 244.6562 312.266 240.2809 312.266 242.1182"/><polygon class="cls-16" points="273.8028 209.4008 282.3249 214.8103 282.3249 212.9751 273.8028 207.5638 273.8028 209.4008"/><polygon class="cls-16" points="263.5104 202.869 270.4776 207.2932 270.4776 205.4539 263.5104 201.0297 263.5104 202.869"/><polygon class="cls-16" points="320.7131 239.1752 347.7026 256.0778 347.7026 254.2406 320.7131 237.3401 320.7131 239.1752"/><polygon class="cls-16" points="312.266 233.8681 319.227 238.2411 319.227 236.4059 312.266 232.0289 312.266 233.8681"/><polygon class="cls-16" points="302.538 215.1101 338.953 238.141 338.953 236.3038 302.538 213.275 302.538 215.1101"/><polygon class="cls-16" points="289.3854 211.0592 312.8913 225.9964 312.8913 224.1592 289.3854 209.2222 289.3854 211.0592"/><polygon class="cls-16" points="260.7415 192.8566 285.8776 208.8304 285.8776 206.9932 260.7415 191.0196 260.7415 192.8566"/><polygon class="cls-16" points="321.4155 231.343 347.7026 247.8155 347.7026 245.9783 321.4155 229.5058 321.4155 231.343"/><polygon class="cls-16" points="315.9423 227.9123 320.104 230.5214 320.104 228.6821 315.9423 226.0771 315.9423 227.9123"/><polygon class="cls-16" points="336.7362 245.021 347.7026 251.9568 347.7026 250.1217 336.7362 243.1859 336.7362 245.021"/><polygon class="cls-16" points="326.6326 238.6308 333.8758 243.2105 333.8758 241.3754 326.6326 236.7936 326.6326 238.6308"/><polygon class="cls-16" points="304.8562 224.8606 324.8524 237.5038 324.8524 235.6684 304.8562 223.0234 304.8562 224.8606"/><polygon class="cls-16" points="281.5535 210.121 291.1759 216.2067 291.1759 214.3694 281.5535 208.2859 281.5535 210.121"/><polygon class="cls-16" points="266.4945 200.5987 274.6796 205.7737 274.6796 203.9386 266.4945 198.7615 266.4945 200.5987"/><polygon class="cls-16" points="275.9281 206.5648 280.0511 209.1736 280.0511 207.3364 275.9281 204.7297 275.9281 206.5648"/><polygon class="cls-16" points="293.423 217.6293 303.2647 223.8527 303.2647 222.0156 293.423 215.7902 293.423 217.6293"/><path class="cls-18" d="m452.6363,198.96l-.0123,21.0122-210.9461-124.7387.006-19.4962c.0486-3.858,4.998-5.6979,9.0643-3.3181l193.8247,114.0369c4.9818,2.9329,8.0531,7.7042,8.0633,12.5039Z"/><path class="cls-7" d="m395.9656,181.059c-.2497-.0157-.5116-.1052-.7775-.2702l-19.0359-11.5961c-.7267-.4437-1.2707-1.2879-1.2686-1.9679.0021-.5946.412-.9829.9946-.9461.2497.0157.5116.1052.7795.2682l19.0357,11.5981c.7267.4437,1.2708,1.2879,1.2689,1.9679-.0021.5946-.4122.9828-.9968.946Z"/><path class="cls-16" d="m375.8803,166.7985c.1522.0096.3328.0696.5278.1875l19.0357,11.6c.5542.3353,1.0008,1.005.9988,1.4921-.0021.3167-.1929.4791-.4771.4611-.1542-.0097-.3351-.0718-.5278-.1896l-19.0359-11.5979c-.5542-.3374-1.0007-1.005-.9986-1.4921,0-.3187.1908-.4792.477-.4611h0Zm0-1.0394h0c-.877-.0553-1.5143.546-1.5164,1.4308-.0021.8709.6454,1.8983,1.5407,2.442l19.0336,11.5978c.3453.2105.6904.3277,1.0273.3489.875.0552,1.5123-.5462,1.5165-1.4308.0019-.8709-.6457-1.8983-1.5408-2.4439l-19.0359-11.5981c-.3451-.2105-.6902-.3256-1.025-.3467h0Z"/><path class="cls-7" d="m440.9859,208.4894c-.2436-.0154-.5137-.1074-.7754-.2682-.3777-.2288-.7207-.5772-.9623-.9801l-5.0468-8.4487-4.9125,2.1996c-.1463.0637-.3045.0904-.4771.0795-.2457-.0155-.5137-.1095-.7777-.2683-.2983-.1812-.5764-.4382-.8018-.7449-.3756-.5026-.538-1.0427-.4405-1.4731.063-.2841.2374-.5047.4873-.6168l5.073-2.2705-5.2374-8.7671c-.3108-.5249-.3898-1.0436-.2154-1.4265.1281-.2782.3817-.4611.6985-.5l.2092-.0051c.6049.0381,1.3175.552,1.7355,1.2505l5.0468,8.4464,4.9107-2.1995c.1461-.064.3064-.0904.477-.0797.5317.0335,1.151.4299,1.5813,1.0092.3756.507.538,1.0469.4405,1.4773-.063.2823-.2355.5028-.4852.6151l-5.0751,2.2723,5.2356,8.7649c.3126.5253.3916,1.046.2172,1.4287-.1281.2782-.3817.4611-.6985.5l-.207.0052Z"/><path class="cls-16" d="m427.8049,185.5187c.4161.0262.9703.4347,1.2972.975l5.2964,8.8683,5.3368-2.388c.0711-.0319.1524-.0432.2418-.0376.3592.0226.8342.3289,1.1694.7824.4261.573.481,1.163.1278,1.3235l-5.5746,2.4967,5.5339,9.2629c.3513.5905.2925,1.1125-.136,1.1628-.0366.0058-.075.0073-.1137.0049-.1603-.0101-.343-.0784-.5257-.1895-.2883-.1745-.5725-.4562-.7694-.7873l-5.2983-8.8684-5.3371,2.3898c-.0711.03-.1542.0431-.2436.0374-.1605-.0101-.3432-.0784-.5278-.1896-.2274-.1382-.4528-.3433-.6394-.5945-.4243-.5708-.4792-1.1629-.126-1.3234l5.5747-2.4948-5.5341-9.2647c-.3511-.5907-.2944-1.1107.1341-1.165.0366-.0037.075-.0034.1138-.0009h0Zm0-1.0394c-.1036-.0065-.205-.0048-.3004.0075-.4893.0606-.8833.3422-1.0801.7765-.2455.5366-.1542,1.2346.2478,1.9117l4.939,8.2691-4.5675,2.0446c-.396.18-.664.5184-.7612.9527-.128.5827.069,1.2793.5419,1.914.2659.36.5989.6672.9602.8868.339.208.6943.3279,1.0252.3488.2557.0161.4954-.0255.7105-.1196l4.4903-2.0108,4.7931,8.0244c.2901.4812.6982.8988,1.1551,1.1752.3451.2105.6902.3277,1.025.3488.1056.0067.2091.003.3066-.0091.4852-.0586.877-.3426,1.076-.7766.2436-.5368.1542-1.2346-.2497-1.9118l-4.9392-8.2691,4.5696-2.0445c.3957-.18.6639-.5165.7593-.9531.1299-.5805-.0671-1.2771-.5401-1.9139-.532-.7156-1.2953-1.1901-1.9894-1.2338-.2517-.0159-.4893.0219-.7024.1162l-4.4966,2.0125-4.793-8.0246c-.5197-.863-1.3967-1.4725-2.1802-1.5219h0Z"/><path class="cls-14" d="m383.7641,199.1959s6.3563-.4778,12.1932-6.4112c8.6188-8.7614-17.0759-12.9066-17.0759-12.9066l-5.7751,11.0962,10.6578,8.2216Z"/><path class="cls-18" d="m396.5007,190.6958c1.3427-2.2591,1.0968-2.2195,1.1674-3.7102.043-.3886.0653-.7857.0653-1.1863l-.4521-57.725c-.05-6.3167-3.4611-12.1244-8.9524-15.2432l-56.2705-31.9598c-4.6197-2.6255-7.8899-8.2543-7.9329-13.6735-.0274-3.5574-1.9496-6.8292-5.0426-8.5862l-26.1281-14.8409c-6.5866-3.7429-12.9272.129-12.8619,7.8538l.588,73.6747c.043,5.4176,3.3044,11.0464,7.9225,13.6717l85.8611,48.7711-1.2878,2.4757,10.0029,5.5723s2.8368,2.6597,9.805-1.7056c1.5542-1.4114,2.8128-2.2678,3.516-3.3887Z"/><path class="cls-8" d="m379.349,88.3898l-88.4348-49.0255c-1.7813-.9885-3.9699.3009-3.9699,2.3399v102.8717c0,.9732.5261,1.8706,1.3789,2.3417l88.4315,49.0168c1.7829.9903,3.9715-.3009,3.9715-2.3382v-102.8683c0-.9731-.5278-1.8706-1.3771-2.3382Z"/><polygon class="cls-12" points="316.6399 153.3822 298.4446 143.0458 298.4446 147.344 316.6399 157.6804 316.6399 153.3822"/><path class="cls-16" d="m317.0524,158.3886l-19.0205-10.804v-5.2473l19.0205,10.8057v5.2456Zm-18.1951-11.2853l17.3699,9.8686v-3.3473l-17.3699-9.8705v3.3493Z"/><polygon class="cls-12" points="358.984 177.8304 340.789 167.494 340.789 171.7922 358.984 182.1303 358.984 177.8304"/><path class="cls-16" d="m359.3967,182.8386l-19.0204-10.8057v-5.2471l19.0204,10.804v5.2489Zm-18.1953-11.2871l17.37,9.8703v-3.3509l-17.37-9.8688v3.3493Z"/><polygon class="cls-12" points="337.6546 165.4377 319.4594 155.0998 319.4594 159.3995 337.6546 169.7359 337.6546 165.4377"/><path class="cls-16" d="m338.0689,170.4443l-19.022-10.804v-5.2491l19.022,10.8057v5.2473Zm-18.1969-11.2855l17.3717,9.8688v-3.3491l-17.3717-9.8705v3.3509Z"/><polygon class="cls-12" points="338.1532 130.8493 345.0338 134.7846 345.0338 133.1702 338.1532 129.2331 338.1532 130.8493"/><path class="cls-16" d="m345.4465,135.4946l-7.7059-4.4065v-2.5651l7.7059,4.4082v2.5634Zm-6.8806-4.8845l6.0552,3.4644v-.6653l-6.0552-3.4662v.6671Z"/><polygon class="cls-12" points="328.3945 125.2667 336.8534 130.1065 336.8534 128.4903 328.3945 123.6523 328.3945 125.2667"/><path class="cls-16" d="m337.2679,130.8165l-9.286-5.3109v-2.5635l9.286,5.3093v2.5651Zm-8.4607-5.7889l7.6353,4.3688v-.6672l-7.6353-4.3669v.6653Z"/><polygon class="cls-12" points="319.3631 120.102 325.7951 123.7812 325.7951 122.165 319.3631 118.4858 319.3631 120.102"/><path class="cls-16" d="m326.2076,124.4912l-7.257-4.1503v-2.5651l7.257,4.1503v2.5651Zm-6.4318-4.6283l5.6066,3.2082v-.6671l-5.6066-3.2082v.6671Z"/><polygon class="cls-12" points="304.7613 111.7478 317.386 118.9689 317.386 117.3545 304.7613 110.1318 304.7613 111.7478"/><path class="cls-16" d="m317.7987,119.6807l-13.4501-7.6938v-2.5635l13.4501,7.6922v2.5651Zm-12.6247-8.1718l11.7993,6.7517v-.6671l-11.7993-6.7499v.6653Z"/><polygon class="cls-12" points="346.9956 135.8953 372.1538 150.069 372.1538 148.4512 346.9956 134.2774 346.9956 135.8953"/><path class="cls-16" d="m372.5665,150.7739l-25.9836-14.6379v-2.5635l25.9836,14.6398v2.5616Zm-25.1584-15.1194l24.3331,13.7097v-.6706l-24.3331-13.7113v.6722Z"/><polygon class="cls-12" points="308.1035 117.296 314.3858 120.8876 314.3858 119.2715 308.1035 115.6816 308.1035 117.296"/><path class="cls-16" d="m314.7985,121.5978l-7.1075-4.0626v-2.5635l7.1075,4.0609v2.5653Zm-6.2823-4.5406l5.457,3.1204v-.6671l-5.457-3.1188v.6655Z"/><polygon class="cls-12" points="298.2761 111.6792 304.9366 115.4857 304.9366 113.8695 298.2761 110.063 298.2761 111.6792"/><path class="cls-16" d="m305.3493,116.1957l-7.4859-4.2776v-2.5651l7.4859,4.2776v2.5651Zm-6.6605-4.7556l5.8352,3.3355v-.6671l-5.8352-3.3355v.6671Z"/><polygon class="cls-12" points="348.407 140.3344 372.1538 153.7123 372.1538 152.0961 348.407 138.7201 348.407 140.3344"/><path class="cls-16" d="m372.5665,154.4172l-24.5721-13.842v-2.56l24.5721,13.8402v2.5618Zm-23.7468-14.3235l22.9214,12.9136v-.6706l-22.9214-12.9119v.6688Z"/><polygon class="cls-12" points="340.973 136.1325 347.0986 139.5969 347.0986 137.9807 340.973 134.5181 340.973 136.1325"/><path class="cls-16" d="m347.5113,140.3018l-6.951-3.9287v-2.5616l6.951,3.9285v2.5618Zm-6.1258-4.41l5.3007,2.9968v-.6671l-5.3007-2.9968v.6671Z"/><polygon class="cls-12" points="295.5631 102.8678 314.6283 113.7663 314.6283 112.1519 295.5631 101.2534 295.5631 102.8678"/><path class="cls-16" d="m315.0409,114.4763l-19.8905-11.3696v-2.5634l19.8905,11.3696v2.5634Zm-19.0652-11.8474l18.2398,10.4274v-.6653l-18.2398-10.4276v.6655Z"/><polygon class="cls-12" points="348.407 133.0757 372.1538 146.4534 372.1538 144.8356 348.407 131.4612 348.407 133.0757"/><path class="cls-16" d="m372.5665,147.1583l-24.5721-13.842v-2.56l24.5721,13.8386v2.5634Zm-23.7468-14.3233l22.9214,12.9134v-.6722l-22.9214-12.9101v.6688Z"/><polygon class="cls-12" points="340.973 128.8738 347.0986 132.3364 347.0986 130.722 340.973 127.2558 340.973 128.8738"/><path class="cls-16" d="m347.5113,133.0429l-6.951-3.9285v-2.5651l6.951,3.932v2.5616Zm-6.1258-4.4098l5.3007,2.9966v-.6671l-5.3007-3.0002v.6706Z"/><polygon class="cls-12" points="320.8418 110.0767 341.5231 121.9141 341.5231 120.2979 320.8418 108.459 320.8418 110.0767"/><path class="cls-16" d="m341.9356,122.6242l-21.5065-12.3083v-2.5686l21.5065,12.3117v2.5653Zm-20.6812-12.7863l19.856,11.3661v-.6671l-19.856-11.3661v.6671Z"/><polygon class="cls-12" points="362.5051 137.3309 372.1538 142.824 372.1538 141.2096 362.5051 135.7147 362.5051 137.3309"/><path class="cls-16" d="m372.5665,143.5324l-10.474-5.9626v-2.5634l10.474,5.9642v2.5618Zm-9.6487-6.4406l8.8233,5.0239v-.6671l-8.8233-5.0255v.6687Z"/><polygon class="cls-12" points="352.1225 131.42 359.9865 135.8969 359.9865 134.2825 352.1225 129.8021 352.1225 131.42"/><path class="cls-16" d="m360.399,136.6054l-8.6892-4.9464v-2.5669l8.6892,4.9515v2.5618Zm-7.864-5.4244l7.0388,4.0077v-.6671l-7.0388-4.0095v.6688Z"/><polygon class="cls-12" points="338.0724 123.4183 349.9287 130.1718 349.9287 128.5539 338.0724 121.8041 338.0724 123.4183"/><path class="cls-16" d="m350.3412,130.8801l-12.6814-7.2209v-2.5635l12.6814,7.2193v2.5651Zm-11.8561-7.6989l11.0309,6.2822v-.6704l-11.0309-6.2806v.6688Z"/><polygon class="cls-12" points="325.0764 116.0203 336.4476 122.4951 336.4476 120.8807 325.0764 114.4059 325.0764 116.0203"/><path class="cls-16" d="m336.8603,123.2036l-12.1966-6.9443v-2.5634l12.1966,6.9441v2.5635Zm-11.3714-7.4221l10.5462,6.0054v-.6688l-10.5462-6.0054v.6688Z"/><polygon class="cls-12" points="311.9204 108.5294 322.965 114.8186 322.965 113.2024 311.9204 106.9132 311.9204 108.5294"/><path class="cls-16" d="m323.3777,115.5269l-11.87-6.7584v-2.5635l11.87,6.7602v2.5618Zm-11.0446-7.2364l10.2195,5.8197v-.6671l-10.2195-5.8214v.6688Z"/><polygon class="cls-12" points="300.7004 102.1405 309.8899 107.3741 309.8899 105.7579 300.7004 100.5243 300.7004 102.1405"/><path class="cls-16" d="m310.3026,108.0824l-10.0149-5.7028v-2.5635l10.0149,5.7012v2.5651Zm-9.1897-6.1808l8.3644,4.764v-.6704l-8.3644-4.7625v.6688Z"/><polygon class="cls-12" points="328.3945 147.4266 345.0338 156.9445 345.0338 155.3283 328.3945 145.8104 328.3945 147.4266"/><path class="cls-16" d="m345.4465,157.6545l-17.4646-9.989v-2.5651l17.4646,9.989v2.5651Zm-16.6393-10.467l15.8139,9.0469v-.6671l-15.8139-9.0469v.6671Z"/><polygon class="cls-12" points="304.7613 133.9079 325.7951 145.9393 325.7951 144.3249 304.7613 132.2917 304.7613 133.9079"/><path class="cls-16" d="m326.2076,146.6495l-21.859-12.5027v-2.5651l21.859,12.5043v2.5635Zm-21.0336-12.9807l20.2084,11.5605v-.6653l-20.2084-11.5622v.6671Z"/><polygon class="cls-12" points="295.5149 128.6209 302.4866 132.6081 302.4866 130.9901 295.5149 127.0032 295.5149 128.6209"/><path class="cls-16" d="m302.8993,133.3181l-7.797-4.4581v-2.5669l7.797,4.4581v2.5669Zm-6.9718-4.936l6.1464,3.516v-.6688l-6.1464-3.516v.6688Z"/><polygon class="cls-12" points="346.9956 158.0552 364.5666 167.953 364.5666 166.337 346.9956 156.4372 346.9956 158.0552"/><path class="cls-16" d="m364.9792,168.6579l-18.3963-10.3638v-2.5618l18.3963,10.364v2.5616Zm-17.5712-10.8452l16.7458,9.4355v-.6706l-16.7458-9.4355v.6706Z"/><polygon class="cls-12" points="316.8203 144.4384 332.5311 153.4216 332.5311 151.8038 316.8203 142.8222 316.8203 144.4384"/><path class="cls-16" d="m332.9438,154.1318l-16.5361-9.4527v-2.5669l16.5361,9.4527v2.5669Zm-15.7108-9.9307l14.8856,8.5105v-.6688l-14.8856-8.5103v.6687Z"/><polygon class="cls-12" points="333.7948 154.142 339.5957 157.4603 339.5957 155.8441 333.7948 152.5276 333.7948 154.142"/><path class="cls-16" d="m340.0083,158.1703l-6.6262-3.7892v-2.5635l6.6262,3.7876v2.5651Zm-5.8008-4.2672l4.9757,2.8472v-.6671l-4.9757-2.8456v.6655Z"/><polygon class="cls-12" points="307.7373 139.2462 314.3858 143.0458 314.3858 141.4296 307.7373 137.63 307.7373 139.2462"/><path class="cls-16" d="m314.7985,143.7558l-7.4739-4.2707v-2.5651l7.4739,4.2707v2.5651Zm-6.6485-4.7487l5.8232,3.3287v-.6671l-5.8232-3.3287v.6671Z"/><polygon class="cls-12" points="298.8847 134.1864 306.4169 138.4915 306.4169 136.877 298.8847 132.5684 298.8847 134.1864"/><path class="cls-16" d="m306.8296,139.2015l-8.3575-4.7762v-2.5669l8.3575,4.7795v2.5635Zm-7.5322-5.2542l6.7068,3.8341v-.6655l-6.7068-3.8375v.6688Z"/><polygon class="cls-12" points="340.973 158.2923 347.0986 161.755 347.0986 160.1406 340.973 156.6763 340.973 158.2923"/><path class="cls-16" d="m347.5113,162.4617l-6.951-3.9285v-2.5635l6.951,3.9302v2.5618Zm-6.1258-4.41l5.3007,2.9968v-.6671l-5.3007-2.9986v.6688Z"/><polygon class="cls-12" points="307.1287 131.6401 314.6283 135.9262 314.6283 134.3102 307.1287 130.0239 307.1287 131.6401"/><path class="cls-16" d="m315.0409,136.6364l-8.3249-4.7574v-2.5651l8.3249,4.7572v2.5653Zm-7.4996-5.2353l6.6742,3.8151v-.6671l-6.6742-3.8151v.6671Z"/><polygon class="cls-12" points="298.0733 126.4632 304.2042 129.969 304.2042 128.351 298.0733 124.8454 298.0733 126.4632"/><path class="cls-16" d="m304.6169,130.679l-6.9563-3.9767v-2.5669l6.9563,3.9767v2.5669Zm-6.1311-4.4547l5.3058,3.0345v-.6688l-5.3058-3.0345v.6688Z"/><polygon class="cls-12" points="348.407 155.2355 372.1538 168.6116 372.1538 166.9954 348.407 153.6193 348.407 155.2355"/><path class="cls-16" d="m372.5665,169.3165l-24.5721-13.8404v-2.56l24.5721,13.8386v2.5618Zm-23.7468-14.3217l22.9214,12.9119v-.6706l-22.9214-12.9101v.6688Z"/><polygon class="cls-12" points="340.973 151.0336 347.0986 154.4962 347.0986 152.8801 340.973 149.4157 340.973 151.0336"/><path class="cls-16" d="m347.5113,155.2029l-6.951-3.9287v-2.5651l6.951,3.9302v2.5635Zm-6.1258-4.41l5.3007,2.9966v-.6688l-5.3007-2.9984v.6706Z"/><polygon class="cls-12" points="332.4142 135.07 364.4548 153.3133 364.4548 151.6971 332.4142 133.4538 332.4142 135.07"/><path class="cls-16" d="m364.8674,154.0218l-32.8657-18.7127v-2.5635l32.8657,18.7127v2.5635Zm-32.0405-19.1907l31.2154,17.774v-.6688l-31.2154-17.774v.6688Z"/><polygon class="cls-12" points="320.6011 128.3424 328.8811 133.0584 328.8811 131.444 320.6011 126.728 320.6011 128.3424"/><path class="cls-16" d="m329.2938,133.7668l-9.1054-5.1853v-2.5618l9.1054,5.1853v2.5618Zm-8.2802-5.6633l7.4548,4.2466v-.6671l-7.4548-4.2466v.6671Z"/><polygon class="cls-12" points="303.4203 118.5631 318.4571 127.1234 318.4571 125.5882 318.5982 125.5882 303.4203 116.9453 303.4203 118.5631"/><path class="cls-16" d="m318.8698,127.8319l-15.8622-9.0314v-2.5635l17.1481,9.7638h-1.2859v1.8311Zm-15.0368-9.5094l14.2115,8.0927v-.6671l-14.2115-8.0945v.6688Z"/><polygon class="cls-12" points="320.8418 132.2332 341.5231 144.074 341.5231 142.4578 320.8418 130.6188 320.8418 132.2332"/><path class="cls-16" d="m341.9356,144.784l-21.5065-12.3119v-2.5651l21.5065,12.3119v2.5651Zm-20.6812-12.7899l19.856,11.3663v-.6637l-19.856-11.3661v.6636Z"/><polygon class="cls-12" points="295.6371 117.8066 317.7557 130.4676 317.7557 128.8514 295.6371 116.1906 295.6371 117.8066"/><path class="cls-16" d="m318.1682,131.1776l-22.9438-13.1319v-2.5651l22.9438,13.1318v2.5653Zm-22.1185-13.6099l21.2933,12.1881v-.6655l-21.2933-12.1897v.6671Z"/><polygon class="cls-12" points="349.0243 148.3033 372.1538 161.3407 372.1538 159.7245 349.0243 146.6889 349.0243 148.3033"/><path class="cls-16" d="m372.5665,162.0457l-23.9549-13.4999v-2.5618l23.9549,13.4999v2.5618Zm-23.1296-13.9812l22.3042,12.5714v-.6706l-22.3042-12.5714v.6706Z"/><polygon class="cls-12" points="344.2085 145.5903 347.8688 147.6551 347.8688 146.0373 344.2085 143.9742 344.2085 145.5903"/><path class="cls-16" d="m348.2833,148.36l-4.4873-2.529v-2.56l4.4873,2.5257v2.5634Zm-3.6621-3.0104l2.8368,1.6007v-.6724l-2.8368-1.5972v.6688Z"/><polygon class="cls-12" points="362.5051 159.489 372.1538 164.9856 372.1538 163.3678 362.5051 157.8746 362.5051 159.489"/><path class="cls-16" d="m372.5665,165.6956l-10.474-5.9676v-2.5618l10.474,5.9624v2.5669Zm-9.6487-6.4455l8.8233,5.0255v-.6688l-8.8233-5.0237v.6671Z"/><polygon class="cls-12" points="353.6147 154.4274 359.9865 158.057 359.9865 156.4408 353.6147 152.8114 353.6147 154.4274"/><path class="cls-16" d="m360.399,158.767l-7.1969-4.1005v-2.5618l7.1969,4.097v2.5653Zm-6.3716-4.5785l5.5464,3.16v-.6688l-5.5464-3.1582v.6671Z"/><polygon class="cls-12" points="334.455 143.5185 352.0486 153.5369 352.0486 151.9207 334.455 141.9041 334.455 143.5185"/><path class="cls-16" d="m352.461,154.2452l-18.4187-10.4876v-2.5618l18.4187,10.486v2.5634Zm-17.5933-10.9656l16.7682,9.5489v-.6688l-16.7682-9.5471v.6671Z"/><polygon class="cls-12" points="313.949 131.8429 322.4148 136.6638 322.4148 135.0476 313.949 130.2267 313.949 131.8429"/><path class="cls-16" d="m322.8292,137.3721l-9.2927-5.2903v-2.5616l9.2927,5.2885v2.5634Zm-8.4675-5.7681l7.6422,4.3514v-.6687l-7.6422-4.3498v.6671Z"/><polygon class="cls-12" points="300.7004 124.2986 307.9024 128.3991 307.9024 126.7849 300.7004 122.6844 300.7004 124.2986"/><path class="cls-16" d="m308.3149,129.1076l-8.0272-4.5699v-2.5618l8.0272,4.5699v2.5618Zm-7.2021-5.0478l6.3769,3.6311v-.6671l-6.3769-3.6311v.6671Z"/><polygon class="cls-12" points="309.001 129.0267 312.6286 131.0915 312.6286 129.4773 309.001 127.4106 309.001 129.0267"/><path class="cls-16" d="m313.0413,131.8l-4.453-2.5343v-2.5651l4.453,2.5377v2.5618Zm-3.6276-3.0121l2.8025,1.5954v-.6671l-2.8025-1.5956v.6672Z"/><polygon class="cls-12" points="324.3939 137.7916 333.0538 142.7208 333.0538 141.1064 324.3939 136.1739 324.3939 137.7916"/><path class="cls-16" d="m333.4665,143.4293l-9.4853-5.3985v-2.5653l9.4853,5.4021v2.5618Zm-8.6601-5.8765l7.8348,4.4598v-.6671l-7.8348-4.4633v.6706Z"/><polygon class="cls-16" points="292.3411 90.8809 291.4489 89.9903 292.4494 89.9903 292.4494 90.3979 292.7365 90.1107 292.4494 90.403 292.5887 90.7897 292.3411 90.8809"/><path class="cls-13" d="m390.1237,190.1438c.0173,2.0047-.4023,3.731-1.1329,5.1441-.6465,1.2551-1.5526,2.266-2.634,2.9641-2.4225,1.5852-5.7184,1.6556-9.1003-.2613l-18.8296-10.7061-77.7031-44.1255c-4.4804-2.6855-7.6182-8.2112-7.6543-13.5289l-.5931-73.6767c0-.7667.0534-1.482.1581-2.1628.5572-3.3646,2.4759-5.7355,5.0547-6.6605,1.3257-.4882,2.8593-.6086,4.4461-.2785h.0172c1.047.2269,2.1095.6276,3.191,1.2551l26.1331,14.8374c.4711.2614.9079.5743,1.3257.9234.2612.1924.5054.4194.7496.6618l.0171.019c.6104.6104,1.1331,1.2894,1.5697,2.0218.8716,1.482,1.36,3.191,1.3773,4.9688.0343,5.4227,3.313,11.0533,7.9327,13.6682l29.08,16.5275,18.8278,10.6872,8.3524,4.7417c5.4913,3.1223,8.9093,8.9265,8.9608,15.2381l.4539,57.7421Z"/><polygon class="cls-7" points="241.7897 259.1603 241.7897 325.7312 175.5561 363.9658 175.5561 297.4045 241.7897 259.1603"/><polygon class="cls-7" points="241.7897 259.1603 175.5561 297.4045 109.313 259.1603 175.5561 220.9257 241.7897 259.1603"/><polygon class="cls-7" points="175.5561 297.4045 175.5561 363.9658 109.313 325.7312 109.313 259.1603 175.5561 297.4045"/><polygon class="cls-2" points="109.313 259.1603 175.5561 220.9257 241.7897 259.1603 175.5561 297.4045 109.313 259.1603"/><polyline class="cls-2" points="241.7897 259.1603 241.7897 325.7312 175.5561 363.9658 109.313 325.7312 109.313 259.1603"/><line class="cls-2" x1="175.5561" y1="297.4045" x2="175.5561" y2="363.9658"/><path class="cls-17" d="m162.0501,192.6141c-7.1167,5.8936-31.9386-2.7953-29.8579-12.6421,2.0925-9.9033,12.7765-7.9758,15.8946-13.8005,3.1181-5.8247-2.4963-9.7485,3.5443-16.4087,6.0407-6.6602,12.4609-2.5261,18.086-8.0654,5.6253-5.5393,5.951-20.5648,21.3599-20.6109,9.1559-.0274,18.567,16.7035,21.333,1.6331,0,0,7.3357,7.6921,3.0565,14.1974-1.6852,2.562-3.5677,3.8331-5.2305,4.4328-4.1815,1.5081-7.8418,4.0512-10.7295,7.4306l-37.4564,43.8338Z"/><path class="cls-2" d="m162.0501,192.6141c-7.1167,5.8936-31.9386-2.7953-29.8579-12.6421,2.0925-9.9033,12.7765-7.9758,15.8946-13.8005,3.1181-5.8247-2.4963-9.7485,3.5443-16.4087,6.0407-6.6602,12.4609-2.5261,18.086-8.0654,5.6253-5.5393,5.951-20.5648,21.3599-20.6109,9.1559-.0274,18.567,16.7035,21.333,1.6331,0,0,7.3357,7.6921,3.0565,14.1974-1.6852,2.562-3.5677,3.8331-5.2305,4.4328-4.1815,1.5081-7.8418,4.0512-10.7295,7.4306l-37.4564,43.8338Z"/><path class="cls-6" d="m166.6554,214.5714c-5.9481,4.0215-12.7192,1.9921-16.5255-1.7208-.3554-45.078,14.5657-55.5358,46.7333-57.0395.2151-.01.4208-.0187.636-.0187,6.3034,0,11.0824,4.7042,11.7932,9.9976,1.1223,9.4084,2.1978,16.6003,3.479,23.9044-1.01.4957-2.1416.8885-3.32,1.141-.0187,2.5906-.7949,5.1905-2.5063,6.9019-2.5439,3.3108-1.5431,1.2813-3.3294,11.3444-.795,4.5359-1.8144,9.3296-2.2727,13.5474h0c-.1496.2057-.2969.3804-.4582.5465-.1567.1612-.327.309-.5051.4676-6.1044,5.4378-17.9563,7.6689-28.8611,5.8733h-.0187c-.9446-.3834-1.787-.7184-2.5252-1.0101-1.8347-.725-2.9927-2.5437-2.8712-4.5172l.5519-9.4177Z"/><path class="cls-11" d="m219.8605,211.2233s15.3284,16.3104,15.0385,25.644c-.0842,2.8151-.3086,5.9761-.5799,9.025-.6359,7.0516-1.5338,13.4672-1.5338,13.4672-1.2905-3.6848-2.6279-7.1731-4.1336-10.1939-.8885-1.7769-1.8398-3.4062-2.8805-4.8071-.849-1.1426-1.7676-2.1417-2.7496-2.9647,0,0,.3834-7.8278-2.4877-10.54-7.0235-6.6494-12.532-13.6076-16.9182-21.7721,1.7863-10.0631.7855-8.0336,3.3294-11.3444,1.7115-1.7115,2.4876-4.3113,2.5063-6.9019,1.1784-.2525,2.3101-.6453,3.32-1.141.7389,4.2273,1.5525,8.4919,2.469,13.2522.6172,3.1798,2.2351,6.0883,4.62,8.2767Z"/><path class="cls-17" d="m262.4414,395.2948c1.3653,2.787-1.5057,5.7891-4.3862,4.6387-7.912-3.1704-14.4867-6.4156-19.911-10.54-2.3288-1.7676-3.5819-4.62-3.4229-7.5379l.2057-3.8063c.0748-1.3935-.1637-2.7776-.7248-4.0496,4.3956-.4208,8.8426-2.2913,11.5547-3.638.318.9633.6359,1.9359.9726,2.9179,2.6654,7.8559,11.9335,14.337,15.7119,22.0152Z"/><path class="cls-17" d="m252.8459,361.7107c1.1878.4957,1.4216,2.095.3929,2.8805-1.459,1.1223-4.0402,2.3662-8.4545,2.7215-1.1036-3.5164-2.0855-6.8927-2.9553-10.1566l11.017,4.5546Z"/><path class="cls-17" d="m218.9907,347.7384c3.236,6.2473,7.0236,12.794,10.1286,17.9097-2.7683-.6547-5.8265-1.5151-9.1933-2.6187-1.3654-.4489-2.2819-1.7676-2.179-3.2078.2805-3.9653.7014-8.0149,1.2438-12.0832Z"/><path class="cls-15" d="m201.343,222.629c-.6453,5.892-.187,10.6562,3.479,12.0123,6.7618,2.469,12.1393,4.7509,13.5608,5.3028l7.379,4.4049c1.0381,1.4027,2.0014,3.0395,2.8899,4.8164l-10.9853,6.3408c-3.5819-5.0034-8.2524-10.3343-12.9099-12.4011-7.0422-3.1143-24.2784-10.0163-33.2379-13.5889,10.9047,1.7956,22.7448-.4489,28.8611-5.8733.262.3647.5144.7108.7763,1.0568-.1029-.505-.187-1.0194-.2712-1.5244.159-.1683.3086-.3407.4582-.5465Z"/><path class="cls-15" d="m230.8237,299.1534c2.6748-7.0423,5.3846-12.3357,7.7226-14.8702.6641-.7201.5424-1.8517-.2618-2.4128l-3.8547-2.6717,25.1686-14.5365c5.0596,3.6848,7.0422,10.3809,4.6668,16.2916-7.2855,18.1715-17.096,35.9595-26.785,57.3107-2.5625-13.196-4.0845-25.382-6.6564-39.1112Z"/><path class="cls-15" d="m226.6689,283.6847c1.113,2.1884,1.936,4.5172,2.4597,6.958.6172,2.9179,1.1808,5.7423,1.6951,8.5106,2.5719,13.7292,4.094,25.9152,6.6564,39.1112,1.1597,6.0042,2.5439,12.2234,4.3488,18.8916.8698,3.2639,1.8517,6.6402,2.9553,10.1566.318,1.0007.636,2.0201.9727,3.0488-2.7122,1.3467-7.1592,3.2172-11.5547,3.638-.187-.4489-.4238-.8708-.6874-1.2813-1.0779-1.6785-2.628-4.143-4.3956-7.0703-3.105-5.1157-6.8926-11.6623-10.1286-17.9097-2.8711-5.5458-5.2933-10.8673-6.4156-14.7485-2.3193-8.0429-1.5712-20.4815-2.1323-28.7957-.2151-3.2826-2.2258-6.1725-5.2279-7.5379-6.3596-2.8992-17.9284-8.2019-23.7455-10.9983-8.2674-3.984-22.2116-9.5019-27.1122-21.9124-3.1891-8.0803-1.4309-16.8154.7294-24.0353,1.3935,1.3279,3.0956,2.3661,5.0034,3.0021,12.1112,4.0495,21.744,5.9947,35.1739,7.622l9.2588,10.1566,8.8099-2.7122.1777.1309-13.8788,8.0149c-1.7208,1.0007-1.5057,2.7402.4863,3.8906l25.2886,14.5989,1.2625-.7294Z"/><path class="cls-11" d="m224.1625,265.906l-10.8299-8.1271-8.8099,2.7122-9.2588-10.1566c-13.4299-1.6273-23.0627-3.5725-35.1739-7.622-1.9078-.636-3.6099-1.6742-5.0034-3.0021-2.3848-2.2633-3.9092-5.3776-4.1617-8.7912-.4864-6.5746-.7576-12.5788-.795-18.0686,3.8063,3.7129,10.5774,5.7423,16.5255,1.7208l-.5519,9.4177c-.1216,1.9734,1.0364,3.7921,2.8712,4.5172.7381.2917,1.5805.6267,2.5252,1.0101h.0187c8.9595,3.5725,26.1957,10.4746,33.2379,13.5889,4.6574,2.0668,9.328,7.3977,12.9099,12.4011,3.769,5.2466,6.3465,10.1098,6.4962,10.3997Z"/><path class="cls-7" d="m224.1625,265.906c-.1496-.2899-2.7271-5.1531-6.4962-10.3997l10.9853-6.3408c1.5057,3.0208,2.8431,6.5092,4.1336,10.1939,0,0,.8979-6.4156,1.5338-13.4672l2.7589-1.5805c1.7208-.9914,4.7322-.8698,6.7149.2805l4.2553,2.4502-4.461,2.5813c-1.7208,1.0007-3.9653,3.6473-5.0034,5.92l-12.4198,27.2034-.7575,1.667-25.2886-14.5989c-1.992-1.1504-2.2071-2.8899-.4863-3.8906l13.8788-8.0149,10.6523,7.9962Z"/><path class="cls-7" d="m234.4298,279.1988l-7.7609,4.486c-.159-.318-.3273-.6289-.505-.9375l12.4198-27.2034c1.0381-2.2727,3.2826-4.9193,5.0034-5.92l37.4372-21.6131c1.7302-1.0007,2.2819.0374,1.2438,2.3101l-12.1018,26.495c-.7108,1.5431-1.8799,2.8243-3.3482,3.6754l-32.3884,18.7077Z"/><path class="cls-7" d="m200.8847,223.1755c.0842.505.1683,1.0194.2712,1.5244-.2618-.346-.5143-.6921-.7763-1.0568.1778-.159.3461-.3086.5051-.4676Z"/><path class="cls-2" d="m201.343,222.629c.0094-.0094.0187-.0333.0281-.0427l-.0281.0427Z"/><path class="cls-2" d="m171.5186,229.5164c10.9047,1.7956,22.7567-.4354,28.8611-5.8733.1781-.1585.3484-.3063.5051-.4676.1613-.1661.3086-.3407.4582-.5465"/><path class="cls-2" d="m259.5983,264.6622c5.0596,3.6848,7.0422,10.3809,4.6668,16.2916-7.2855,18.1715-17.096,35.9595-26.785,57.3107"/><path class="cls-2" d="m241.8289,357.1562l11.017,4.5546c1.1878.4957,1.4216,2.095.3929,2.8805-1.459,1.1223-4.0402,2.3662-8.4545,2.7215"/><path class="cls-2" d="m229.1192,365.6481c-2.7683-.6547-5.8265-1.5151-9.1933-2.6187-1.3654-.4489-2.2819-1.7676-2.179-3.2078.2805-3.9653.7014-8.0149,1.2438-12.0832"/><line class="cls-2" x1="234.4298" y1="279.1988" x2="234.4298" y2="279.1988"/><path class="cls-2" d="m230.8237,299.1534c2.6748-7.0423,5.3846-12.3357,7.7226-14.8702.6641-.7201.5424-1.8517-.2618-2.4128l-3.8547-2.6717"/><path class="cls-2" d="m209.4514,190.8353c1.1784-.2525,2.3101-.6453,3.32-1.141"/><path class="cls-2" d="m225.7618,244.3491c-.8511-1.141-1.7582-2.1324-2.7402-2.9553,0,0,.3834-7.8278-2.4877-10.54-7.0235-6.6494-12.532-13.6076-16.9182-21.7721"/><path class="cls-2" d="m224.1719,265.9154l-10.8393-8.1365-8.8099,2.7122-9.2588-10.1566c-13.4299-1.6273-23.0627-3.5725-35.1739-7.622-1.9078-.636-3.6085-1.6756-5.0034-3.0021-2.3824-2.2658-3.9092-5.3776-4.1617-8.7912-.4864-6.5746-.7547-12.5788-.795-18.0686-.3313-45.0782,14.5657-55.5358,46.7333-57.0395.2151-.01.4208-.0187.636-.0187,6.3034,0,11.0824,4.7042,11.7932,9.9976,1.1223,9.4084,2.2001,16.5999,3.479,23.9044.7402,4.227,1.5525,8.4919,2.469,13.2522.6172,3.1798,2.2351,6.0883,4.62,8.2767,0,0,15.3284,16.3104,15.0385,25.644-.0842,2.8151-.3068,5.9762-.5799,9.025-.6316,7.052-1.5338,13.4672-1.5338,13.4672-1.2905-3.6848-2.6261-7.1741-4.1336-10.1939-.8874-1.7776-1.8424-3.4043-2.8805-4.8071"/><path class="cls-2" d="m167.9367,192.9676l-1.8331,31.0215c-.1216,1.9734,1.0364,3.7921,2.8712,4.5172.7381.2917,1.5805.6267,2.5252,1.0101h.0187c8.9595,3.5725,26.1957,10.4746,33.2379,13.5889,4.6574,2.0668,9.3239,7.4006,12.9099,12.4011,3.7647,5.2497,6.3465,10.1098,6.4962,10.3997"/><path class="cls-2" d="m155.0866,239.7104c-2.1603,7.2199-3.9185,15.9549-.7294,24.0353,4.9006,12.4105,18.8448,17.9284,27.1122,21.9124,5.8171,2.7964,17.3859,8.099,23.7455,10.9983,3.0021,1.3654,5.0128,4.2553,5.2279,7.5379.5611,8.3142-.187,20.7528,2.1323,28.7957,1.1223,3.8811,3.5439,9.2029,6.4156,14.7485,3.2353,6.2476,7.0294,12.7904,10.1286,17.9097,1.7709,2.9252,3.3177,5.3918,4.3956,7.0703.2636.4105.4957.8343.6874,1.2813.5479,1.2776.7996,2.6561.7248,4.0496l-.2057,3.8063c-.159,2.9179,1.0941,5.7704,3.4229,7.5379,5.4243,4.1244,11.999,7.3696,19.911,10.54,2.8805,1.1504,5.7516-1.8517,4.3862-4.6387-3.7784-7.6782-13.0465-14.1593-15.7119-22.0152-.3367-.982-1.629-4.9655-1.9452-5.9668-1.1098-3.5145-2.0792-6.8943-2.9553-10.1566-1.7919-6.6717-3.1861-12.8879-4.3488-18.8916-2.5559-13.1973-4.0946-25.3802-6.6564-39.1112-.5164-2.7679-1.0779-5.5927-1.6951-8.5106-.5237-2.4409-1.3542-4.7658-2.4597-6.958-.1601-.3174-.3273-.6289-.505-.9375"/><line class="cls-2" x1="203.6063" y1="263.6335" x2="191.7382" y2="255.4783"/><path class="cls-2" d="m150.1206,212.8412c3.8063,3.7129,10.5868,5.7517,16.5349,1.7302"/><path class="cls-2" d="m225.4064,284.4142l-25.2886-14.5989c-1.992-1.1504-2.2071-2.8899-.4863-3.8906l13.8788-8.0149"/><line class="cls-2" x1="217.6664" y1="255.5064" x2="228.6516" y2="249.1655"/><path class="cls-2" d="m225.7711,244.3585l-7.3883-4.4143c-1.4216-.5519-6.7991-2.8338-13.5608-5.3028-3.6661-1.3561-4.1243-6.1204-3.479-12.0123h0c.4582-4.2178,1.4727-9.0124,2.2727-13.5474,1.7752-10.065.7855-8.0336,3.3294-11.3444,1.7115-1.7115,2.4859-4.3113,2.5063-6.9019.0173-2.179-.505-4.3488-1.4496-5.9855-.664-1.1504-.9165-2.4035-.9258-3.7876"/><path class="cls-2" d="m234.3191,245.8922l2.7589-1.5805c1.7208-.9914,4.7322-.8698,6.7149.2805l4.2553,2.4502"/><path class="cls-2" d="m248.0482,247.0425l32.9762-19.0318c1.7302-1.0007,2.2819.0374,1.2438,2.3101l-12.1018,26.495c-.7108,1.5431-1.8799,2.8243-3.3482,3.6754l-32.3884,18.7077-9.0234,5.2154.7575-1.667,12.4198-27.2034c1.0381-2.2727,3.2826-4.9193,5.0034-5.92l4.461-2.5813Z"/><path class="cls-2" d="m234.2022,373.9996c4.3956-.4208,8.8426-2.2913,11.5547-3.638"/><path class="cls-11" d="m188.3808,136.4919c-3.5371,10.135-6.0898,16.1053-11.1896,23.2849-1.0651,1.4995-.68,3.571.8169,4.6397,2.6321,1.8792,6.7618,4.2018,10.2578,3.4019,2.7945-.6392,1.9772-6.2702,3.5515-10.2247,0,0,6.5251,1.2894,9.0652-1.7054,2.54-2.9949,4.7701-13.2331,4.7701-13.2331-6.1755.8175-12.3956-1.5786-17.2718-6.1634Z"/><path class="cls-2" d="m188.3808,136.4919c-3.5371,10.135-6.0898,16.1053-11.1896,23.2849-1.0651,1.4995-.68,3.571.8169,4.6397,2.6321,1.8792,6.7618,4.2018,10.2578,3.4019,2.7945-.6392,1.9772-6.2702,3.5515-10.2247,0,0,6.5251,1.2894,9.0652-1.7054,2.54-2.9949,4.7701-13.2331,4.7701-13.2331-6.1755.8175-12.3956-1.5786-17.2718-6.1634Z"/></g><path class="cls-1" d="m299.9998,94.349h.0004c99.3446,0,179.9998,80.6552,179.9998,179.9998v95.0002H120v-95.0002c0-99.3446,80.6552-179.9998,179.9998-179.9998Z"/></g></g></svg>