<?xml version="1.0" encoding="UTF-8"?>
<svg id="Layer_1" data-name="Layer 1" xmlns="http://www.w3.org/2000/svg" xmlns:xlink="http://www.w3.org/1999/xlink" viewBox="0 0 991.55 734.48">
  <defs>
    <style>
      .cls-1 {
        stroke: red;
        stroke-width: 3.31px;
      }

      .cls-1, .cls-2, .cls-3, .cls-4 {
        stroke-miterlimit: 10;
      }

      .cls-1, .cls-5 {
        fill: none;
      }

      .cls-2 {
        fill: #f6d84c;
      }

      .cls-2, .cls-3, .cls-4 {
        stroke: #3a3a3a;
        stroke-width: 4px;
      }

      .cls-6 {
        clip-path: url(#clippath);
      }

      .cls-5, .cls-7 {
        stroke-width: 0px;
      }

      .cls-7 {
        fill: #f2f2f2;
      }

      .cls-3 {
        fill: #3a3a3a;
      }

      .cls-4 {
        fill: #fff;
      }
    </style>
    <clipPath id="clippath">
      <rect class="cls-5" x="0" y="0" width="991.55" height="734.48"/>
    </clipPath>
  </defs>
  <rect class="cls-7" x="0" y="0" width="991.55" height="734.48"/>
  <g class="cls-6">
    <g>
      <path class="cls-2" d="M799.14,649.62v186.91H192.41v-186.91c0-83.02,62.98-152.51,145.61-160.64l32.22-3.17c-.15.1-.31.2-.47.3,1.37.62,133.41,60.02,252.02,0-.16-.1-.32-.2-.47-.3l32.22,3.17c82.62,8.13,145.6,77.62,145.6,160.64Z"/>
      <path class="cls-4" d="M607,299.14c-9.17,36.84-26.53,67.85-48.83,88.25,6.96,32.51,23.66,73.01,63.15,98.42.15.1.31.2.47.3-118.61,60.02-250.65.62-252.02,0,.16-.1.32-.2.47-.3,39.49-25.41,56.19-65.91,63.15-98.42-22.3-20.4-39.66-51.41-48.83-88.25-41.61,27.72-48.23-57.98-38.28-75.63,3.09-5.48,8.35-5.34,14.25-2.4,5.46,2.71,11.48,7.84,16.83,13.14.4.4.8.79,1.19,1.19.03.03.07.07.1.1,3.62,3.56,9.37,3.7,13.2.37.03-.02.06-.04.09-.07,1.02-.91,2.06-1.86,3.1-2.86.34-.32.68-.64,1.02-.98,1.82-1.77,3.67-3.65,5.52-5.63,23.07-24.58,47.45-62.74,47.45-62.74,11.32,21.58,70.92,53.02,118.87,75.57,5.55,2.61,10.94,4.78,16.08,6.8.91.36,1.82.71,2.72,1.06,6.97,2.74,14.91.85,19.89-4.75,2.25-2.53,4.84-5.32,7.61-8.06,5.35-5.3,11.36-10.42,16.82-13.14,5.9-2.94,11.17-3.08,14.26,2.4,9.95,17.65,3.32,103.35-38.28,75.63Z"/>
      <path class="cls-1" d="M621.81,486.1s-.01,0-.02,0"/>
      <path class="cls-1" d="M369.77,486.11h-.01"/>
      <path class="cls-3" d="M631.02,154.75v66.36c-5.46,2.72-11.47,7.84-16.82,13.14-2.77,2.74-5.36,5.53-7.61,8.06-4.98,5.6-12.92,7.49-19.89,4.75-.9-.35-1.81-.7-2.72-1.06-5.14-2.02-10.53-4.19-16.08-6.8-47.95-22.55-107.55-53.99-118.87-75.57,0,0-24.38,38.16-47.45,62.74-1.85,1.98-3.7,3.86-5.52,5.63-.34.33-.68.66-1.02.98-1.04,1-2.08,1.95-3.1,2.86-.03.03-.06.05-.09.07-3.83,3.33-9.58,3.19-13.2-.37-.03-.03-.07-.07-.1-.1-.39-.4-.79-.79-1.19-1.19-5.35-5.3-11.37-10.43-16.83-13.14v-66.36c0-55.14,60.55-99.83,135.25-99.83s135.24,44.69,135.24,99.83Z"/>
    </g>
  </g>
</svg>