<?xml version="1.0" encoding="UTF-8"?><svg id="Layer_1" xmlns="http://www.w3.org/2000/svg" width="600" height="450" xmlns:xlink="http://www.w3.org/1999/xlink" viewBox="0 0 600 450"><defs><style>.cls-1,.cls-2{fill:none;}.cls-3{fill:url(#linear-gradient);}.cls-4{clip-path:url(#clippath);}.cls-5,.cls-6,.cls-7,.cls-8{fill:#ffd936;}.cls-9,.cls-10,.cls-11{fill:#373737;}.cls-12{fill:#fff;}.cls-12,.cls-6,.cls-10,.cls-13,.cls-7,.cls-2{stroke:#373737;stroke-width:2px;}.cls-12,.cls-6,.cls-10,.cls-13,.cls-2{stroke-miterlimit:10;}.cls-13{fill:#95999f;}.cls-7{stroke-linecap:round;stroke-linejoin:round;}.cls-14{clip-path:url(#clippath-1);}.cls-11,.cls-8{opacity:.2;}.cls-15{isolation:isolate;}</style><linearGradient id="linear-gradient" x1="391.9578" y1="535.4813" x2="214.2852" y2="-64.4026" gradientUnits="userSpaceOnUse"><stop offset="0" stop-color="#3ddceb"/><stop offset="1" stop-color="#fff"/></linearGradient><clipPath id="clippath"><rect class="cls-1" x="0" width="600" height="450"/></clipPath><clipPath id="clippath-1"><path class="cls-1" d="m392.7011,313.5376c-.4969,2.0201-1.0266,3.9823-1.5536,5.8568-.1453.4693-.2909.9083-.4089,1.3476-.4693,1.5533-.9359,3.0765-1.4628,4.5393-.0877.2636-.1756.5573-.2633.8206-1.29,3.631-2.6676,6.9711-4.1608,10.0449-2.6952,5.5055-5.6812,10.1053-8.9609,13.8543-3.2797,3.7766-6.8256,5.5055-6.8256,5.5055-17.455,4.5669-152.0184-4.6382-176.1809-19.9554-59.6-37.8963-53.477-164.0092.0492-192.758,25.6613-13.7829,12.5644-53.3311,25.6559-66.0712,0,0-.763-.118,3.7488-.9359,1.1719-.206,2.3714-.3845,3.6009-.5269.3814-.0304.763-.088,1.1416-.118,1.3779-.118,2.7556-.206,4.1608-.2361h.4969c1.5834-.0304,3.1917.0301,4.8631.1481.4089.0275.8206.0576,1.2295.118,1.2872.088,2.6075.2305,3.955.4089.4966.088.9935.1456,1.4929.206,1.6109.2633,3.2496.5542,4.9182.9055.1481.0304.2937.0604.4393.088,1.8166.4117,3.6912.8782,5.5657,1.4052.5269.1481,1.0842.3238,1.6112.4693,1.4656.4418,2.9284.9083,4.3937,1.4052.5848.2057,1.1694.3814,1.7565.5874,1.9926.7327,4.0127,1.4628,6.0929,2.3135,80.5376,37.9567,143.3018,153.3466,124.6448,230.5772Z"/></clipPath></defs><rect class="cls-3" x="0" width="600" height="450"/><path class="cls-1" d="m299.9998,75.1682h.0004c99.3446,0,179.9998,80.6552,179.9998,179.9998v95.0002H120v-95.0002c0-99.3446,80.6552-179.9998,179.9998-179.9998Z"/><g class="cls-4"><path class="cls-8" d="m362.059,128.4855C157.771,105.7343-26.3593,172.4552-49.1888,277.5266c-22.7906,105.0714,124.3249,208.7283,328.613,231.4792,204.288,22.7512,388.4189-43.9697,411.2483-149.0411,22.8294-105.0714-124.2861-208.6889-328.6135-231.4792Zm224.8779,213.1291c-15.6782,64.7953-147.9798,104.5999-295.528,89.0001-147.5481-15.5995-254.4662-80.7879-238.7881-145.5439,15.6782-64.756,147.9803-104.5999,295.528-89.0001,147.5481,15.6388,254.4662,80.7879,238.7881,145.5439Z"/><path class="cls-11" d="m304.8492,242.1009c85.9445,0,155.6194,37.0534,155.6194,82.7772,0,1.5999-.2802,3.1561-.4474,4.7341-4.6411,43.5117-72.2329,78.0403-155.172,78.0403-85.9608,0-155.6385-37.0481-155.6385-82.7744s69.6777-82.7772,155.6385-82.7772Z"/><g class="cls-15"><path class="cls-6" d="m272.2828,76.0002c49.124,16.6374,68.2753,14.7792,82.769,3.8232l31.979,12.2679c-.0495.0467-.1565.1484-.3184.2993-13.9996,12.0208-34.1087,21.89-55.6284,14.1944-16.9693-6.0679-38.0553-19.7384-38.0553-19.7384,2.1159.9797-22.8014-11.5405-20.7459-10.8464Z"/><path class="cls-5" d="m173.8923,201.0952c-.3625-6.6746-.7549-14.2551-.6231-23.8334.0028-.3569.011-.634.0138-.8263l31.979,12.2653c-.0056.1922-.0084.4693-.0166.8288,2.61,50.4221,7.2839,113.0739,50.3122,149.3452,2.0859,1.7621-29.6818-16.4725-31.9844-17.949-33.9168-22.5378-47.2276-71.9007-49.681-119.8306Z"/><path class="cls-9" d="m255.8157,339.9535c-1.0016,0-3.9135-1.6576-15.9427-8.4941-7.4762-4.2484-15.6493-8.9747-16.8184-9.7239-39.5867-26.3088-48.3939-86.8472-50.1228-120.5911-.3378-6.241-.7605-14.0078-.6231-23.8964l.0382-1.9732,1.279.2633,32.6158,12.5096-.0357,1.5038c2.2944,44.2882,5.7663,111.3284,49.9722,148.5878l.6888.582-.4393.8397c-.1647.2223-.2909.3923-.6121.3923Zm-81.5943-162.1291c-.1096,9.5674.2993,17.1231.6315,23.2185v.0028c1.707,33.3842,10.3796,93.2475,49.2527,119.0788,1.8197,1.1691,16.6043,9.6688,25.3732,14.5431-39.6803-38.5247-42.9763-102.2826-45.194-145.0886l.0056-.2223-30.0691-11.5324Z"/><path class="cls-5" d="m173.283,176.4356c2.4096-.0438,4.7535-.2085,7.0479-.4556,44.6752-3.4663,76.4563-55.8973,85.9414-105.1694l32.1055,13.1981c-.0275.1456-15.9978,99.9222-86.0678,104.2395-2.3054.14-4.6382.4089-7.0479.4528h0l-31.979-12.2653Z"/><path class="cls-9" d="m205.0917,189.6643l-36.7626-14.0985,4.9373-.0908c2.2506-.041,4.5284-.1891,6.9627-.4499,45.3477-3.5186,75.8968-56.5808,85.0991-104.3957l.2223-1.1553,33.9002,13.9367-.1262.7602c-.6807,4.1223-17.4111,100.7481-86.9542,105.0351-.8125.0495-1.6275.1152-2.4456.181-1.5258.1237-3.0684.247-4.6464.2746l-.1866.0028Zm-27.2036-12.4904l27.5411,10.5637c1.4738-.0357,2.9146-.1509,4.342-.2661.8316-.0658,1.6576-.1318,2.481-.1813,65.6898-4.0509,83.3123-92.9263,85.0468-102.6856l-30.3077-12.4601c-9.6084,48.2016-40.6296,101.2284-86.5866,104.7934-.8535.0936-1.6904.1703-2.5167.2361Z"/><path class="cls-5" d="m298.3778,84.0087c-.9825,5.1652-19.6864,103.2924-93.1157,104.6922-.1428,7.572-2.8298,151.401,77.2469,159.5384,5.168-2.7337,103.3061-54.6571,104.5219-256.148-.7959.7658-15.9183,15.3719-39.3453,15.5257-14.2798.0933-31.3506-5.467-49.3078-23.6083Z"/><path class="cls-9" d="m282.7037,349.2247l-.2881-.0304c-78.6577-7.9919-78.4025-144.9155-78.1142-160.5016l.0163-.9249.9249-.0275c70.6493-1.3476,90.1957-93.4175,92.1908-103.9098l.3431-1.795,1.2843,1.2981c15.3171,15.4762,31.5538,23.3228,48.2595,23.3228h.3594c22.3925-.1481,37.0813-13.7087,38.684-15.2567l1.6413-1.5836-.0138,2.2809c-1.1857,196.4356-94.4057,251.3752-105.0298,256.9903l-.258.1374Zm-76.4949-159.5851c-.258,19.1704.804,149.6223,76.1107,157.6145,11.6341-6.2492,101.901-60.9447,103.7342-252.9973-4.7588,4.0318-18.6955,14.1918-38.3625,14.3208h-.3735c-16.769.0028-33.0273-7.6077-48.3472-22.623-3.4169,16.4862-24.3604,101.6239-92.7616,103.685Z"/><path class="cls-9" d="m273.5894,316.8064c17.6964-11.2882,76.5772-58.7765,86.1336-193.9819,3.6119-.6231,7.0178-1.4794,10.1848-2.5032-8.1594,147.6657-71.788,198.9414-90.6485,210.9734-26.3636-5.5494-40.6982-33.0852-48.5035-62.4927,8.0138,23.3835,21.1903,43.4513,42.8335,48.0044Z"/><path class="cls-9" d="m279.2593,333.5562c-.1534,0-.3128-.0166-.4665-.0495-49.5686-10.4318-57.9941-94.4661-59.317-130.1118-.0413-1.1143.7355-2.0968,1.8332-2.3054,50.3617-9.6359,74.3407-60.2776,84.1551-89.6084.2195-.6531.7217-1.1691,1.372-1.4052.6425-.2414,1.367-.1647,1.9543.1976,12.3007,7.5338,25.2659,11.357,38.5382,11.357l.453-.0028c7.2564-.0495,14.469-1.2132,21.4345-3.4582.711-.2276,1.4822-.0905,2.0749.3623.5874.4556.9139,1.1719.8729,1.9158-8.1979,148.3571-72.252,200.3519-91.6886,212.7516-.3651.2333-.7877.3569-1.2161.3569Zm-55.1894-128.4101c1.496,35.3492,9.9324,113.2987,54.7557,123.739,19.7083-12.8856,79.9449-63.6728,88.6396-205.4735-6.4248,1.7703-13.0227,2.6926-19.6564,2.7365l-.4691.0028c-13.256,0-26.1882-3.5624-38.4918-10.5912-10.5308,30.1896-34.9516,78.9486-84.7782,89.5864Z"/><path class="cls-9" d="m294.9168,244.3624h0c1.4684-.8482,2.4124-2.3824,2.5004-4.0756l3.7105-71.0115c.2085-3.9632-4.0565-6.5813-7.4981-4.5997l-7.4211,4.276c-1.6385.944-2.6047,2.728-2.5029,4.616l3.7134,66.7355c.2085,3.7215,4.2647,5.9201,7.4978,4.0593Z"/><path class="cls-9" d="m304.8411,258.76c0,7.7752-5.4918,17.2493-12.2681,21.1602-6.7761,3.9137-12.2707.7821-12.2707-6.9931s5.4946-17.2493,12.2707-21.163c6.7764-3.9109,12.2681-.7793,12.2681,6.9959Z"/></g><path class="cls-13" d="m172.1358,153.6617c2.3107,70.8415,52.8261,159.4151,112.371,197.3414,35.2368,22.354,65.9011,22.118,84.5665,3.5293-17.4631,4.5778-39.5372-.0795-63.7054-15.4076-59.6025-37.8935-110.1208-126.4642-112.4317-197.3083-.9744-29.1057,12.5838-53.3368,25.6503-66.0577-25.7079,6.5128-47.8754,35.7281-46.4508,77.9029Z"/><path class="cls-13" d="m375.3613,370.3298l21.8077-12.3364c12.3834-7.0535,24.3576-19.2885,28.5897-27.0446,4.8631-8.9086,8.1375-18.5035,10.7803-38.9145l-24.9503,9.9133s-19.4422,53.9104-36.2275,68.3821Z"/><path class="cls-13" d="m404.5682,280.2414c-10.5086-108.4713-99.0684-229.0981-200.8431-216.9483,108.0158-73.9835,227.9973,105.0764,231.1345,199.699-1.9268,1.0868-30.0525,17.1228-30.2914,17.2493Z"/><polygon class="cls-13" points="434.9801 262.9564 483.0283 291.5515 462.0877 303.3857 414.1136 274.8345 434.9801 262.9564"/><path class="cls-12" d="m414.4458,274.9472c-9.249-61.3098-37.5559-122.4547-73.3607-159.3575-2.0063-2.0611-4.007-4.059-5.9968-6.0049-.7026-.686-1.3998-1.3282-2.0996-1.9979-1.2843-1.2324-2.5715-2.4782-3.8505-3.6639-.8178-.7577-1.6275-1.4656-2.4428-2.2039-1.1525-1.0457-2.3107-2.1106-3.4579-3.115-.8535-.7492-1.6989-1.4518-2.5496-2.1792-1.098-.9415-2.2014-1.8993-3.2963-2.8048-.8726-.722-1.7399-1.4027-2.61-2.1024-1.0595-.8535-2.1216-1.7236-3.1726-2.5442-.8754-.6804-1.7427-1.32-2.6128-1.9788-1.0429-.7875-2.0859-1.5862-3.1206-2.3436-.8589-.6259-1.7098-1.2161-2.5659-1.8225-1.0348-.7299-2.0721-1.4738-3.0987-2.1735-.8454-.5764-1.6823-1.1143-2.522-1.6688-1.0266-.6751-2.0558-1.3611-3.0768-2.0089-.826-.5216-1.6413-1.0072-2.4616-1.5066-1.0238-.6259-2.053-1.2599-3.0712-1.8526-.8043-.4693-1.5974-.9058-2.3961-1.3532-1.0207-.5736-2.0446-1.1525-3.0599-1.6933-.7821-.4199-1.5589-.8069-2.3385-1.2076-1.0154-.5213-2.0336-1.0429-3.0408-1.5314-.7602-.3679-1.5095-.7082-2.2643-1.0595-1.0182-.4693-2.0336-.9412-3.0436-1.3776-.727-.3184-1.4462-.6093-2.1679-.9058-1.0238-.4227-2.0448-.8426-3.0549-1.2321-.6998-.2664-1.3914-.5135-2.0831-.763-1.0207-.3707-2.0417-.7383-3.0546-1.0758-.6669-.2223-1.3282-.4227-1.9897-.6287-1.0264-.3209-2.0474-.634-3.0628-.9165-.634-.1785-1.2627-.3403-1.8939-.505-1.0264-.2664-2.0502-.5244-3.0656-.7549-.6009-.1343-1.1967-.2552-1.7922-.3814-1.032-.2142-2.0583-.4173-3.0737-.593-.5654-.0961-1.1253-.181-1.6851-.2661-1.0348-.1591-2.0639-.3046-3.085-.4255-.5298-.0601-1.0539-.1124-1.5808-.1647-1.0348-.0986-2.0639-.1866-3.0847-.2468-.4941-.0304-.9853-.0523-1.474-.0714-1.0373-.0441-2.0693-.0689-3.0903-.0689-.4584,0-.9111.0056-1.3639.0138-1.0401.0166-2.0696.0551-3.0903.1152-.4199.0275-.84.0551-1.2571.088-1.0401.0823-2.0693.1866-3.0903.3128-.3816.0467-.7602.0933-1.139.1484-1.0401.1481-2.0693.3181-3.0903.5104-.3431.0658-.686.1318-1.0292.2032-1.0401.2139-2.0693.4556-3.0875.7189-.3021.0795-.6068.1593-.9086.2417-1.0401.2853-2.0665.6009-3.0821.9384-.2661.088-.5323.1756-.7984.2664-1.0348.3594-2.0586.7518-3.0658,1.1635-.2305.0961-.4581.1866-.686.2827-1.0348.4393-2.0474.9058-3.0493,1.3998-.1948.0958-.3895.1866-.5789.2827-1.0264.5185-2.0364,1.0702-3.0273,1.6466-.1563.0905-.3128.1785-.4665.269-1.021.6037-2.0226,1.2433-3.0051,1.9074-.118.0795-.2389.1565-.3569.2361-1.0098.6944-2.0007,1.4215-2.9694,2.1764-.0852.0658-.1703.129-.2552.1948-.9991.7849-1.9734,1.6056-2.9284,2.4566-.0523.0467-.1043.0905-.1565.1371-.9825.8811-1.9431,1.8003-2.8818,2.7528-.0138.0138-.0273.0247-.041.0385h0c-29.4623,29.9893-35.0997,93.5162-1.0758,169.243,55.0795,127.3588,190.101,181.9307,221.4983,84.4923.1071-.3322.2142-.6613.3184-.9963,1.3996-4.4899,2.5799-9.2956,3.5296-14.4279.1096-.5983.2195-1.2048.3238-1.8141.4365-2.5524.8397-5.1514,1.161-7.8603l36.576,21.8383,16.4205-18.8219c-.0714,0-48.5338-29.2209-52.5985-31.603Zm-189.5553,1.9622c-54.9395-72.3892-64.6193-190.8478-2.5496-202.0946,1.1719-.2142,2.3714-.387,3.5981-.5216.3842-.0438.7684-.0852,1.1582-.1208,1.3585-.1206,2.7418-.1976,4.1633-.2223.1622-.0025.3156-.0163.4778-.0191,1.5834-.0138,3.2137.0438,4.874.1509.4064.0275.8263.0714,1.238.1071,1.29.1043,2.6072.2498,3.9438.4308.4913.066.9825.1318,1.4794.2085,1.6137.2498,3.255.5435,4.9373.903.1428.0304.2827.0523.428.0823,1.8169.4008,3.6833.8782,5.5769,1.408.5326.1481,1.0758.3156,1.6137.4747,1.4437.4283,2.9093.8948,4.3968,1.397.5789.195,1.1525.387,1.7371.593,2.001.7107,4.029,1.4653,6.112,2.3191,80.5294,37.9289,143.2773,153.3247,124.6257,230.5663-.4887,2.0308-1.0129,3.9685-1.5561,5.8568-.1318.4556-.269.8945-.4036,1.3448-.4665,1.5561-.9468,3.0737-1.449,4.5337-.0933.2746-.1866.5545-.2827.8234-1.2818,3.6366-2.6676,6.9821-4.158,10.0423h.0166c-34.5289,71.0306-123.5057-10.2098-159.9777-58.2634Z"/><g class="cls-15"><path class="cls-10" d="m598.5886,416.7148c.1017-16.0006,11.3843-35.2202,25.1754-43.0202,13.8051-7.8109,24.934-1.279,24.8378,14.7298-.0933,15.9155-11.3896,35.2202-25.1754,43.0173-13.7939,7.7974-24.9283,1.1967-24.8378-14.7269Z"/><path class="cls-13" d="m447.0642,311.4984c3.2688-10.0696,9.7568-19.4475,18.0289-26.0179,1.4819-1.1582,2.9942-2.2312,4.6326-3.1589,6.8584-3.8752,13.0694-4.2074,17.5511-1.5946l154.0548,91.3592c-4.5008-2.61-10.698-2.2778-17.5677,1.6084-9.7455,5.5055-17.1118,15.479-21.3274,25.6857-2.094,5.0609-3.5624,10.5721-3.8148,16.0554-.2361,5.1599.6585,11.1263,4.2484,15.0976.8864,1.0016,1.8993,1.8442,3.0189,2.4948,0,0-154.3376-91.5377-154.4775-91.6282-9.6688-6.0106-7.2564-20.9407-4.3474-29.9016Z"/></g><g class="cls-14"><g class="cls-15"><path class="cls-5" d="m272.2828,76.0002c49.124,16.6374,68.2753,14.7792,82.769,3.8232l31.979,12.2679c-.0495.0467-.1565.1484-.3184.2993-13.9996,12.0208-34.1087,21.89-55.6284,14.1944-16.9693-6.0679-38.0553-19.7384-38.0553-19.7384,2.1159.9797-22.8014-11.5405-20.7459-10.8464Z"/><path class="cls-9" d="m293.5501,86.0397c.2113.1371,21.1877,13.6815,37.8578,19.6398,22.8976,8.2004,43.1986-4.4241,53.787-13.2641l-29.9921-11.5051c-13.1874,9.7621-29.9946,12.7262-72.82-.6121,2.094,1.0733,4.1689,2.1325,5.7964,2.9613,2.868,1.4628,4.4213,2.2562,5.2228,2.7693l.0301-.0548-.0191.0601c.0357.0222.0686.0441.0986.066l.0385-.0604Z"/><path class="cls-7" d="m173.8923,201.0952c-.3625-6.6746-.7549-14.2551-.6231-23.8334.0028-.3569.011-.634.0138-.8263l31.979,12.2653c-.0056.1922-.0084.4693-.0166.8288,2.61,50.4221,7.2839,113.0739,50.3122,149.3452,2.0859,1.7621-29.6818-16.4725-31.9844-17.949-33.9168-22.5378-47.2276-71.9007-49.681-119.8306Z"/><path class="cls-7" d="m173.283,176.4356c2.4096-.0438,4.7535-.2085,7.0479-.4556,44.6752-3.4663,76.4563-55.8973,85.9414-105.1694l32.1055,13.1981c-.0275.1456-15.9978,99.9222-86.0678,104.2395-2.3054.14-4.6382.4089-7.0479.4528h0l-31.979-12.2653Z"/><path class="cls-7" d="m298.3778,84.0087c-.9825,5.1652-19.6864,103.2924-93.1157,104.6922-.1428,7.572-2.8298,151.401,77.2469,159.5384,5.168-2.7337,103.3061-54.6571,104.5219-256.148-.7959.7658-15.9183,15.3719-39.3453,15.5257-14.2798.0933-31.3506-5.467-49.3078-23.6083Z"/><path class="cls-9" d="m273.5894,316.8064c17.6964-11.2882,76.5772-58.7765,86.1336-193.9819,3.6119-.6231,7.0178-1.4794,10.1848-2.5032-8.1594,147.6657-71.788,198.9414-90.6485,210.9734-26.3636-5.5494-39.7674-33.0852-47.5726-62.4927,8.0138,23.3835,20.2594,43.4513,41.9027,48.0044Z"/><path class="cls-2" d="m224.0699,205.1461c1.496,35.3492,9.9324,113.2987,54.7557,123.739,19.7083-12.8856,79.9449-63.6728,88.6396-205.4735-6.4248,1.7703-13.0227,2.6926-19.6564,2.7365l-.4691.0028c-13.256,0-26.1882-3.5624-38.4918-10.5912-10.5308,30.1896-34.9516,78.9486-84.7782,89.5864Z"/><path class="cls-9" d="m294.9168,251.6632h0c1.4684-.8482,2.4124-2.3824,2.5004-4.0756l3.7105-71.0115c.2085-3.9632-4.0565-6.5813-7.4981-4.5997l-7.4211,4.276c-1.6385.944-2.6047,2.728-2.5029,4.616l3.7134,66.7355c.2085,3.7215,4.2647,5.9201,7.4978,4.0593Z"/><path class="cls-9" d="m304.8411,266.0607c0,7.7752-5.4918,17.2493-12.2681,21.1602-6.7761,3.9137-12.2707.7821-12.2707-6.9931s5.4946-17.2493,12.2707-21.163c6.7764-3.9109,12.2681-.7793,12.2681,6.9959Z"/></g></g></g></svg>