<svg viewBox="0 0 96 48"
  xmlns="http://www.w3.org/2000/svg" fill="#FFD736">
  <g>
    <path d="M71.356 0.125244H23.8718C10.7088 0.125244 0 10.834 0 23.997C0 37.16 10.7088 47.8746 23.8718 47.8746H71.356C84.5249 47.8746 95.2393 37.1656 95.2393 23.997C95.2393 10.8284 84.5249 0.125244 71.356 0.125244ZM71.356 44.9021H23.8718C12.3447 44.9021 2.9723 35.5239 2.9723 23.997C2.9723 12.4701 12.3447 3.09764 23.8718 3.09764H71.356C82.889 3.09764 92.2671 12.4701 92.2671 23.997C92.2671 35.5239 82.889 44.9021 71.356 44.9021Z" />
    <path d="M28.0654 15.27C27.2072 14.5211 26.2452 14.0026 25.191 13.7318C24.1368 13.4553 22.8693 13.3228 21.3949 13.3228H15.7207C14.7815 13.3228 14.1076 13.5302 13.6871 13.9508C13.2666 14.3714 13.0534 15.051 13.0534 15.9901V31.7452C13.0534 32.4422 13.117 33.0067 13.2379 33.4388C13.3588 33.8766 13.6238 34.2108 14.0213 34.4527C14.4247 34.6946 15.0179 34.8099 15.8128 34.8099H21.4814C22.4721 34.8099 23.3592 34.7465 24.1426 34.6198C24.9319 34.4931 25.6694 34.2741 26.3489 33.9632C27.0344 33.6463 27.6625 33.2316 28.2442 32.7131C28.9758 32.0392 29.5749 31.2787 30.0472 30.4204C30.5138 29.5678 30.8595 28.6059 31.0843 27.5401C31.309 26.4745 31.4241 25.2993 31.4241 24.0089C31.4241 20.0974 30.3064 17.1881 28.0654 15.27ZM24.8282 30.3396C24.5056 30.6219 24.1194 30.8465 23.6817 31.002C23.244 31.1575 22.8176 31.2556 22.4086 31.2958C21.9996 31.3304 21.4292 31.3535 20.7091 31.3535H17.4083V16.7677H20.283C21.6078 16.7677 22.7428 16.9117 23.6817 17.1997C24.6206 17.4877 25.4099 18.1559 26.0492 19.2159C26.6885 20.2701 27.0115 21.8601 27.0115 23.9799C27.0115 26.9869 26.2796 29.1068 24.8282 30.3396Z" />
    <path d="M39.1719 13.605C38.7629 13.173 38.2327 12.9541 37.5818 12.9541C36.9425 12.9541 36.4241 13.1729 36.0266 13.6165C35.6232 14.0543 35.4275 14.711 35.4275 15.5923V32.5227C35.4275 33.4041 35.6292 34.0665 36.0322 34.5101C36.4412 34.9537 36.9539 35.1783 37.5818 35.1783C38.2327 35.1783 38.7629 34.9595 39.1719 34.5159C39.575 34.0781 39.7766 33.4157 39.7766 32.5228V15.5924C39.7766 14.7052 39.5749 14.0428 39.1719 13.605Z" />
    <path d="M61.7591 13.9737C61.5805 13.6626 61.3327 13.4206 61.0101 13.2306C60.6934 13.0462 60.3477 12.9541 59.9789 12.9541C59.472 12.9541 59.069 13.075 58.775 13.3112C58.4813 13.5531 58.2738 13.8238 58.1472 14.1178C58.0203 14.4172 57.8305 14.9473 57.5768 15.7076L52.6918 30.2244L47.8243 15.8114C47.5017 14.8148 47.1906 14.089 46.8795 13.6339C46.5743 13.1788 46.05 12.9542 45.3069 12.9542C44.7022 12.9542 44.195 13.1615 43.7976 13.5705C43.3942 13.9795 43.1929 14.4346 43.1929 14.9358C43.1929 15.1316 43.2275 15.3678 43.2908 15.6501C43.3541 15.9381 43.4292 16.1973 43.5271 16.445C43.6191 16.687 43.7054 16.9347 43.7977 17.1881L48.913 31.1171C49.0975 31.6529 49.2818 32.1656 49.466 32.6437C49.6561 33.1217 49.8694 33.5481 50.1228 33.9225C50.3706 34.3026 50.6989 34.6022 51.1022 34.8327C51.5112 35.0631 52.0065 35.1783 52.5885 35.1783C53.1761 35.1783 53.6714 35.0631 54.0804 34.827C54.4835 34.5907 54.812 34.2912 55.0539 33.9226C55.2958 33.5598 55.5146 33.1333 55.6992 32.6495C55.8834 32.1656 56.0677 31.6529 56.2578 31.1171L61.4598 17.0729C61.5462 16.8195 61.6384 16.5717 61.7248 16.3355C61.8112 16.0936 61.886 15.8516 61.9436 15.5981C62.0013 15.3504 62.03 15.1199 62.03 14.9011C62.03 14.59 61.9433 14.2789 61.7591 13.9737Z" />
    <path d="M80.3426 15.27C79.4785 14.5211 78.5224 14.0026 77.4682 13.7318C76.414 13.4553 75.1465 13.3228 73.6721 13.3228H67.9979C67.0587 13.3228 66.3791 13.5302 65.9586 13.9508C65.5381 14.3714 65.3305 15.051 65.3305 15.9901V31.7452C65.3305 32.4422 65.3882 33.0067 65.515 33.4388C65.6359 33.8766 65.8953 34.2108 66.2984 34.4527C66.6958 34.6946 67.295 34.8099 68.0842 34.8099H73.7584C74.7434 34.8099 75.6306 34.7465 76.4196 34.6198C77.2089 34.4931 77.9405 34.2741 78.6259 33.9632C79.3114 33.6463 79.9395 33.2316 80.5155 32.7131C81.2471 32.0392 81.8519 31.2787 82.3185 30.4204C82.7908 29.5678 83.1365 28.6059 83.3612 27.5401C83.5859 26.4745 83.6954 25.2993 83.6954 24.0089C83.6954 20.0974 82.5779 17.1881 80.3426 15.27ZM77.0995 30.3396C76.7769 30.6219 76.3966 30.8465 75.9589 31.002C75.5153 31.1575 75.0948 31.2556 74.6802 31.2958C74.2709 31.3304 73.7064 31.3535 72.9807 31.3535H69.6855V16.7677H72.5543C73.885 16.7677 75.02 16.9117 75.9589 17.1997C76.8978 17.4877 77.6871 18.1559 78.3264 19.2159C78.9657 20.2701 79.2827 21.8601 79.2827 23.9799C79.2827 26.9869 78.5568 29.1068 77.0995 30.3396Z" />
  </g>
</svg>