<svg xmlns="http://www.w3.org/2000/svg" width="24" height="24" viewBox="0 0 24 24" fill="none">
  <g>
    <path d="M9.55009 17.9001C9.37907 17.9001 9.21403 17.8698 9.05496 17.8093C8.89591 17.7488 8.75225 17.6544 8.62399 17.5262L4.32399 13.2262C4.0747 12.9769 3.95423 12.664 3.96256 12.2876C3.9709 11.9111 4.0997 11.5983 4.34899 11.349C4.59827 11.0997 4.91168 10.975 5.28921 10.975C5.66676 10.975 5.98017 11.0997 6.22944 11.349L9.55009 14.6696L17.7707 6.44897C18.02 6.19969 18.3329 6.0727 18.7093 6.068C19.0858 6.06328 19.4034 6.19027 19.6621 6.44897C19.9113 6.69826 20.036 7.01348 20.036 7.39465C20.036 7.7758 19.9113 8.09101 19.6621 8.3403L10.4762 17.5262C10.3479 17.6544 10.2043 17.7488 10.0452 17.8093C9.88615 17.8698 9.72111 17.9001 9.55009 17.9001Z" fill="#1C1B1F"/>
  </g>
</svg>