<svg xmlns="http://www.w3.org/2000/svg" width="26" height="26" viewBox="0 0 26 26" fill="none">
  <g clip-path="url(#clip0_225_2180)">
    <path d="M13 26C20.1797 26 26 20.1797 26 13C26 5.8203 20.1797 0 13 0C5.8203 0 0 5.8203 0 13C0 20.1797 5.8203 26 13 26Z" fill="black"/>
    <path d="M13.9485 11.3115C14.1468 11.0887 14.3102 10.8625 14.5139 10.6706C15.1399 10.0805 15.8805 9.78284 16.7452 9.79017C17.2203 9.7942 17.69 9.82849 18.1482 9.96092C19.196 10.2639 19.805 10.9853 20.0954 12.0088C20.3132 12.7765 20.3534 13.5646 20.3547 14.3553C20.3576 16.023 20.3499 17.6907 20.3535 19.3585C20.3539 19.5146 20.3101 19.5556 20.1564 19.5543C19.2973 19.5472 18.438 19.547 17.5789 19.5545C17.4277 19.5558 17.3951 19.509 17.3955 19.3661C17.4003 17.7793 17.4016 16.1924 17.3964 14.6055C17.3951 14.2078 17.3698 13.8104 17.2582 13.4237C17.0527 12.7115 16.5429 12.3487 15.7967 12.388C14.7779 12.4418 14.2481 12.9463 14.1182 13.9824C14.0871 14.2298 14.0725 14.4774 14.0727 14.7267C14.074 16.27 14.0711 17.8133 14.0768 19.3566C14.0773 19.5105 14.0387 19.5559 13.8815 19.5545C13.0162 19.5468 12.1507 19.5478 11.2853 19.5539C11.1466 19.5549 11.1065 19.5175 11.1067 19.3772C11.1105 16.3217 11.1106 13.2661 11.1065 10.2106C11.1063 10.0594 11.1559 10.0244 11.2988 10.0255C12.1206 10.0316 12.9425 10.0323 13.7643 10.025C13.9155 10.0237 13.9546 10.0726 13.9513 10.2158C13.9429 10.5808 13.9485 10.9462 13.9485 11.3115Z" fill="#FDFDFD"/>
    <path d="M9.24106 14.8033C9.24106 16.315 9.23852 17.8266 9.24465 19.3382C9.24534 19.5062 9.20354 19.557 9.02964 19.5551C8.17089 19.5456 7.31193 19.5478 6.45315 19.5538C6.31549 19.5548 6.27402 19.5204 6.2742 19.3781C6.27834 16.3175 6.27801 13.257 6.27496 10.1965C6.27485 10.0698 6.30551 10.0246 6.44005 10.0255C7.31131 10.0311 8.18268 10.0329 9.05391 10.0244C9.22125 10.0228 9.24407 10.0878 9.24367 10.2312C9.2395 11.7552 9.24106 13.2793 9.24106 14.8033Z" fill="#FDFDFD"/>
    <path d="M9.47791 6.99288C9.47889 7.9419 8.70846 8.71513 7.76162 8.71545C6.82693 8.71578 6.05001 7.94197 6.04696 7.00769C6.04388 6.06299 6.82019 5.28519 7.76529 5.28613C8.70363 5.28704 9.47697 6.05773 9.47791 6.99288Z" fill="#FDFDFD"/>
  </g>
  <defs>
    <clipPath id="clip0_225_2180">
      <rect width="26" height="26" fill="white"/>
    </clipPath>
  </defs>
</svg>