<svg viewBox="0 0 16 16"
  xmlns="http://www.w3.org/2000/svg">
  <path d="M13.7522 15.2966L9.29571 10.8401C8.84522 11.1559 8.35458 11.3928 7.82379 11.5507C7.29298 11.7086 6.73199 11.7876 6.14081 11.7876C4.55627 11.7876 3.20527 11.2358 2.08781 10.1322C0.970351 9.02864 0.411621 7.68458 0.411621 6.10004C0.411621 4.5155 0.970351 3.1645 2.08781 2.04704C3.20527 0.929579 4.55627 0.37085 6.14081 0.37085C7.72535 0.37085 9.06941 0.929579 10.173 2.04704C11.2765 3.1645 11.8283 4.5155 11.8283 6.10004C11.8283 6.69907 11.7528 7.26006 11.6019 7.78302C11.4509 8.30596 11.2106 8.7818 10.8809 9.21054L15.37 13.7323C15.5916 13.9539 15.697 14.2166 15.6861 14.5203C15.6752 14.8241 15.5629 15.0828 15.3492 15.2966C15.1275 15.5182 14.8614 15.629 14.5507 15.629C14.24 15.629 13.9738 15.5182 13.7522 15.2966ZM6.14081 9.49585C7.08405 9.49585 7.88582 9.16569 8.54614 8.50537C9.20646 7.84505 9.53662 7.04327 9.53662 6.10004C9.53662 5.14291 9.20993 4.33072 8.55656 3.66345C7.90318 2.99619 7.09793 2.66256 6.14081 2.66256C5.18368 2.66256 4.37149 2.99619 3.70423 3.66345C3.03696 4.33072 2.70333 5.14291 2.70333 6.10004C2.70333 7.05716 3.03696 7.86241 3.70423 8.51579C4.37149 9.16916 5.18368 9.49585 6.14081 9.49585Z" />
</svg>