<svg xmlns="http://www.w3.org/2000/svg" width="26" height="26" viewBox="0 0 26 26" fill="none">
  <g clip-path="url(#clip0_225_2171)">
    <path d="M13 26C20.1797 26 26 20.1797 26 13C26 5.8203 20.1797 0 13 0C5.8203 0 0 5.8203 0 13C0 20.1797 5.8203 26 13 26Z" fill="black"/>
    <path d="M10.5504 20.0992C16.5394 20.0992 19.8146 15.1374 19.8146 10.835C19.8146 10.694 19.8117 10.5536 19.8053 10.414C20.441 9.95447 20.9936 9.38102 21.4296 8.72814C20.8462 8.98727 20.2184 9.16198 19.5597 9.24071C20.232 8.83768 20.7481 8.19982 20.9915 7.43955C20.3622 7.8125 19.6657 8.08383 18.924 8.2299C18.3299 7.59702 17.4837 7.20117 16.5473 7.20117C14.749 7.20117 13.2908 8.65942 13.2908 10.457C13.2908 10.7126 13.3194 10.961 13.3752 11.1994C10.6692 11.0634 8.26958 9.76765 6.66387 7.79752C6.38395 8.27859 6.22289 8.83771 6.22289 9.43402C6.22289 10.5637 6.79776 11.5609 7.67182 12.1443C7.13777 12.1279 6.63594 11.9811 6.19709 11.737C6.19637 11.7506 6.19637 11.7643 6.19637 11.7786C6.19637 13.3556 7.31889 14.6722 8.80863 14.9707C8.53517 15.0451 8.24737 15.0852 7.95029 15.0852C7.74054 15.0852 7.53648 15.0644 7.33819 15.0265C7.75269 16.3201 8.95467 17.2615 10.38 17.288C9.26536 18.1613 7.8615 18.6818 6.33595 18.6818C6.07322 18.6818 5.81406 18.6667 5.5592 18.6367C7.00029 19.5601 8.71129 20.0992 10.5504 20.0992Z" fill="white"/>
  </g>
  <defs>
    <clipPath id="clip0_225_2171">
      <rect width="26" height="26" fill="white"/>
    </clipPath>
  </defs>
</svg>